<svg width="36" height="36" viewBox="0 0 36 36" fill="none" xmlns="http://www.w3.org/2000/svg">
<path d="M33.1874 0H23.0625L8.43738 21.3749H18.5623L33.1874 0Z" fill="#BF392C"/>
<path d="M2.8125 0H12.9374L27.5624 21.3749H17.4375L2.8125 0Z" fill="#E2574C"/>
<path d="M18.5625 11.25C25.425 11.25 30.9375 16.7625 30.9375 23.625C30.9375 30.4875 25.425 36 18.5625 36C11.7 36 6.1875 30.4875 6.1875 23.625C6.1875 16.7625 11.7 11.25 18.5625 11.25Z" fill="#ED9D5D"/>
<path d="M18.5624 14.6249C13.6125 14.6249 9.56238 18.6749 9.56238 23.625C9.56238 28.575 13.6123 32.625 18.5624 32.625C23.5125 32.625 27.5624 28.575 27.5624 23.625C27.5624 18.6749 23.5124 14.6249 18.5624 14.6249ZM18.5624 30.3749C14.8499 30.3749 11.8124 27.3374 11.8124 23.625C11.8124 19.9126 14.85 16.875 18.5624 16.875C22.2748 16.875 25.3124 19.9126 25.3124 23.625C25.3124 27.3374 22.2748 30.3749 18.5624 30.3749Z" fill="#D58D54"/>
</svg>
