<svg width="36" height="36" viewBox="0 0 36 36" fill="none" xmlns="http://www.w3.org/2000/svg">
<path d="M33.131 0H23.0061L8.38098 21.3749H18.5059L33.131 0Z" fill="#BF392C"/>
<path d="M2.75598 0H12.8809L27.5059 21.3749H17.3809L2.75598 0Z" fill="#E2574C"/>
<path d="M18.506 11.25C25.3685 11.25 30.881 16.7625 30.881 23.625C30.881 30.4875 25.3685 36 18.506 36C11.6435 36 6.13098 30.4875 6.13098 23.625C6.13098 16.7625 11.6435 11.25 18.506 11.25Z" fill="#FFD01D"/>
<path d="M18.506 14.625C13.5561 14.625 9.50598 18.6749 9.50598 23.625C9.50598 28.5751 13.5559 32.625 18.506 32.625C23.4561 32.625 27.506 28.5751 27.506 23.625C27.506 18.6749 23.456 14.625 18.506 14.625ZM18.506 30.3749C14.7935 30.3749 11.756 27.3374 11.756 23.625C11.756 19.9126 14.7936 16.875 18.506 16.875C22.2184 16.875 25.256 19.9126 25.256 23.625C25.256 27.3374 22.2184 30.3749 18.506 30.3749Z" fill="#DEBB33"/>
</svg>
