<svg width="221" height="234" viewBox="0 0 221 234" fill="none" xmlns="http://www.w3.org/2000/svg">
<circle opacity="0.6" cx="110.5" cy="123.5" r="110.5" fill="#00227B"/>
<path d="M141.672 189.188H83.2472C73.2268 189.188 65.0288 181.022 65.0288 171.042V119.628C65.0288 109.648 73.2268 101.482 83.2472 101.482H141.672C151.693 101.482 159.891 109.648 159.891 119.628V171.042C159.891 181.022 151.692 189.188 141.672 189.188Z" fill="white"/>
<path d="M141.672 101.482C151.692 101.482 159.89 109.647 159.89 119.627V171.041C159.89 181.022 151.692 189.187 141.672 189.187H83.2475C73.2271 189.187 65.0291 181.022 65.0291 171.041V119.627C65.0291 109.647 73.2271 101.482 83.2475 101.482H141.672ZM141.672 98.6135H83.2475C80.4098 98.6135 77.6511 99.1724 75.0479 100.274C72.5385 101.336 70.2833 102.853 68.3448 104.784C66.4064 106.715 64.8827 108.962 63.8164 111.46C62.7106 114.053 62.1494 116.801 62.1494 119.627V171.041C62.1494 173.868 62.7106 176.615 63.8164 179.208C64.8827 181.708 66.4056 183.954 68.3448 185.884C70.2833 187.815 72.5393 189.333 75.0479 190.395C77.6511 191.496 80.4098 192.055 83.2475 192.055H141.673C144.51 192.055 147.269 191.496 149.872 190.395C152.382 189.333 154.637 187.816 156.575 185.884C158.514 183.954 160.037 181.707 161.104 179.208C162.21 176.615 162.771 173.868 162.771 171.041V119.627C162.771 116.801 162.21 114.053 161.104 111.46C160.037 108.961 158.515 106.715 156.575 104.784C154.637 102.854 152.381 101.336 149.872 100.274C147.269 99.1724 144.51 98.6135 141.672 98.6135Z" fill="#00227B"/>
<path d="M158.584 157.396C149.487 158.458 140.421 158.72 140.421 158.72C140.421 158.72 135.803 135.787 134.523 117.805C133.58 104.481 134.467 93.8777 140.421 97.3359C143.16 98.9273 146.314 101.924 149.603 105.726C161.941 119.989 176.115 145.601 176.893 150.915C177.395 154.333 167.977 156.293 158.584 157.396Z" fill="white"/>
<path d="M139.203 160.247L138.954 159.014C138.926 158.873 136.103 144.782 134.275 130.192C133.197 121.59 132.671 114.488 132.709 109.083C132.76 101.701 133.837 97.5146 136.095 95.9076C137.087 95.202 138.773 94.6546 141.176 96.0502C149.096 100.652 159.147 115.313 164.434 123.642C167.961 129.198 171.337 135.038 173.941 140.086C175.775 143.643 178.034 148.371 178.375 150.699C178.475 151.375 178.408 152.401 177.528 153.445C176.255 154.954 173.611 156.136 169.207 157.162C165.978 157.914 161.829 158.561 156.874 159.086C148.486 159.973 140.544 160.209 140.465 160.211L139.203 160.247ZM138.359 98.1669C138.07 98.1669 137.918 98.2751 137.835 98.3332C136.859 99.0282 133.931 103.35 137.244 129.808C138.744 141.79 140.922 153.439 141.646 157.184C144.2 157.081 150.261 156.787 156.575 156.119C171.233 154.566 174.507 152.39 175.236 151.527C175.437 151.289 175.421 151.178 175.413 151.13C174.988 148.234 169.458 137.136 161.904 125.235C153.156 111.452 145.052 101.753 139.668 98.625C139.057 98.2701 138.642 98.1669 138.359 98.1669Z" fill="#00227B"/>
<path d="M94.1339 96.4903L92.2926 110.362L91.2452 118.249L89.0114 135.088C89.0114 135.088 84.9288 137.853 78.1378 140.045C75.6004 140.865 72.6779 141.598 69.4527 142.079C64.1804 142.869 58.0846 142.97 51.4803 141.625C34.4886 138.158 24.2913 125.587 19.8764 119.267C11.3435 107.067 10.0304 103.769 12.4024 98.6332C14.2133 94.6973 17.3159 93.9786 17.3159 93.9786C17.3159 93.9786 17.1629 90.8335 19.6624 89.7149C27.1537 86.364 36.8039 95.3127 36.8039 95.3127C36.8039 95.3127 37.1634 85.6896 42.3345 87.9112C45.897 89.4428 46.705 99.9198 46.705 99.9198C46.705 99.9198 51.4869 106.04 59.0834 106.852C63.0532 107.276 68.5468 106.129 74.0026 104.463C74.0659 104.444 74.1301 104.426 74.1934 104.403C77.1011 103.509 79.9898 102.472 82.635 101.447C83.8214 100.989 84.9585 100.53 86.0248 100.091C90.7918 98.1227 94.1339 96.4903 94.1339 96.4903Z" fill="white"/>
<path opacity="0.35" d="M19.8739 119.267C24.2929 125.586 34.4886 138.159 51.4786 141.625C62.121 143.793 71.447 142.2 78.1385 140.042C84.9296 137.853 89.0113 135.086 89.0113 135.086L89.3108 121.798C89.3108 121.798 84.6836 117.357 80.374 119.168C75.1955 121.343 76.855 128.739 69.4592 130.796C48.8993 136.514 32.1972 126.067 26.8229 121.48C19.3671 115.118 17.422 111.11 16.373 109.457C14.2018 106.035 12.525 103.347 11.5796 100.939C10.6162 105.012 12.6731 108.968 19.8739 119.267Z" fill="#00227B"/>
<path d="M61.7317 144.148C58.1839 144.148 54.651 143.793 51.179 143.084C43.5413 141.526 36.4153 138.019 30.0002 132.658C25.8716 129.208 22.0515 124.988 18.647 120.119C14.492 114.175 11.8509 110.093 10.6464 106.813C9.49209 103.67 9.60645 101.12 11.0397 98.0095C12.4507 94.9463 14.5842 93.5376 15.8734 92.9337C16.0841 91.3586 16.9043 89.3157 19.0485 88.3569C25.1402 85.6313 32.1699 89.8492 35.6493 92.4453C35.6831 92.2691 35.7209 92.0888 35.7612 91.906C36.338 89.3296 37.3335 87.5808 38.7199 86.7097C39.5714 86.1746 40.9923 85.7116 42.9299 86.545C44.8955 87.3907 46.3296 89.8811 47.3153 94.158C47.8196 96.3492 48.0623 98.4061 48.1537 99.3174C49.2117 100.511 53.3469 104.739 59.2445 105.369C70.0103 106.518 93.2402 95.2651 93.4738 95.1512C93.9691 94.9094 94.5582 94.9586 95.0058 95.2798C95.4534 95.6002 95.6879 96.1411 95.6163 96.6852L90.4971 135.281C90.4411 135.702 90.2083 136.079 89.8553 136.318C89.6842 136.434 85.5786 139.19 78.7522 141.411C74.7535 142.713 70.6397 143.56 66.5259 143.931C64.9273 144.075 63.3278 144.148 61.7317 144.148ZM17.6621 95.4265C17.4688 95.479 15.184 96.1608 13.7598 99.2518C11.8419 103.415 12.3133 105.841 21.1029 118.414C29.3667 130.235 39.9738 137.755 51.7787 140.162C62.5347 142.356 71.8772 140.511 77.8208 138.577C82.8594 136.937 86.3339 134.981 87.6191 134.2L92.2891 98.9953C89.8496 100.105 85.8592 101.848 81.3809 103.52C71.4123 107.24 63.8561 108.859 58.9253 108.333C50.7906 107.465 45.7356 101.106 45.5241 100.836C45.3439 100.605 45.2353 100.326 45.2131 100.034C45.2115 100.01 45.0082 97.4654 44.3895 94.7922C43.3471 90.2859 42.0998 89.4345 41.7427 89.2813C40.8492 88.8969 40.4633 89.1387 40.3177 89.2296C39.0597 90.018 38.3784 93.2942 38.2961 95.3683C38.2731 95.9502 37.9111 96.4664 37.3705 96.6885C36.8292 96.9106 36.2088 96.7991 35.7801 96.4017C35.6913 96.3197 26.7668 88.1709 20.2744 91.0759C18.7786 91.7454 18.8057 93.7646 18.8099 93.9097C18.8543 94.6455 18.3853 95.2741 17.6621 95.4265Z" fill="#00227B"/>
<path d="M38.035 95.311C38.0695 95.7298 38.007 96.1108 37.9231 96.4411C37.8811 96.6115 37.8293 96.759 37.7766 96.9106C37.7232 97.0524 37.6648 97.1966 37.6072 97.3253C37.371 97.8547 37.116 98.2931 36.8733 98.7184C36.6297 99.1412 36.3952 99.5436 36.1772 99.9468L36.0176 100.25C35.9674 100.352 35.9139 100.452 35.8654 100.555L35.7239 100.863L35.5889 101.174L35.4663 101.491L35.3528 101.812C35.3141 101.919 35.2853 102.029 35.2508 102.138C35.2146 102.247 35.1874 102.358 35.1578 102.469C35.0443 102.915 34.9464 103.374 34.8896 103.847C34.8279 104.319 34.7884 104.803 34.7769 105.295C34.7645 105.543 34.7695 105.79 34.767 106.043C34.7629 106.169 34.7736 106.294 34.7744 106.421C34.7769 106.548 34.781 106.675 34.7802 106.803V106.812C34.7802 106.911 34.6995 106.992 34.5991 106.992C34.5292 106.992 34.4691 106.952 34.4395 106.894C34.1993 106.43 33.9821 105.949 33.8142 105.445C33.6373 104.944 33.5106 104.421 33.4177 103.886C33.235 102.816 33.2391 101.683 33.4399 100.577L33.523 100.164C33.5551 100.028 33.5904 99.8927 33.6242 99.7558C33.6604 99.6206 33.7007 99.4879 33.7385 99.3527C33.778 99.2191 33.8249 99.0888 33.8685 98.9568C34.0487 98.4324 34.2717 97.9341 34.5012 97.467C34.73 97.0008 34.9735 96.5607 35.171 96.1788C35.3791 95.792 35.4968 95.4782 35.5659 95.3085L35.7107 94.9537C35.9625 94.3383 36.6676 94.0425 37.2855 94.2932C37.7223 94.4719 37.998 94.8742 38.035 95.311Z" fill="#00227B"/>
<path d="M49.8349 142.648C49.4573 142.648 49.0928 142.44 48.9134 142.08C48.66 141.574 48.8673 140.959 49.3758 140.707C53.525 138.651 56.3602 132.234 57.573 122.15C58.5134 114.336 58.1226 107.068 58.1185 106.996C58.0872 106.431 58.5208 105.948 59.0877 105.916C59.6521 105.884 60.14 106.317 60.1721 106.881C60.1762 106.955 60.5769 114.378 59.6184 122.367C59.0515 127.094 58.1259 131.106 56.8671 134.289C55.238 138.41 53.0256 141.186 50.2924 142.541C50.1451 142.614 49.9888 142.648 49.8349 142.648Z" fill="#00227B"/>
<g opacity="0.35">
<g opacity="0.35">
<g opacity="0.35">
<g opacity="0.35">
<path opacity="0.35" d="M182.569 208.583V208.374C180.924 208.444 182.569 208.583 182.569 208.583Z" fill="#00227B"/>
</g>
</g>
</g>
</g>
<path d="M161.81 183.418H63.0048C63.0048 183.418 63.6071 166.434 69.452 142.078C71.7944 132.31 74.9826 121.356 79.3119 109.836C80.3519 107.07 81.4602 104.272 82.6351 101.446C85.9204 93.5639 89.752 85.4912 94.2204 77.4186H130.596C134.289 84.0932 137.548 90.7646 140.422 97.3351C142.281 101.584 143.98 105.788 145.529 109.917C152.291 127.919 156.262 144.534 158.585 157.395C161.451 173.262 161.81 183.418 161.81 183.418Z" fill="white"/>
<path d="M148.246 122.584C150.155 124.707 151.028 127.179 151.835 129.661C152.24 130.902 152.639 132.146 153.02 133.396C153.21 134.021 153.406 134.644 153.577 135.274C153.752 135.903 153.922 136.534 154.093 137.164L154.593 139.058C154.758 139.69 154.924 140.321 155.079 140.956L155.988 144.766C156.136 145.402 156.298 146.034 156.443 146.671L156.877 148.58L157.322 150.487C157.471 151.122 157.626 151.756 157.766 152.394L158.623 156.215C158.771 156.851 158.897 157.492 159.033 158.13L159.435 160.047L159.635 161.005L159.736 161.484L159.829 161.965L160.205 163.886C160.331 164.527 160.46 165.167 160.595 165.806C160.725 166.446 160.856 167.086 160.993 167.725C161.566 170.276 161.983 172.86 162.157 175.477C162.179 175.804 162.205 176.13 162.22 176.459L162.262 177.443C162.284 178.1 162.302 178.756 162.292 179.418C162.288 180.077 162.273 180.738 162.23 181.401C162.192 182.064 162.137 182.727 162.036 183.395C162.017 183.523 161.896 183.612 161.767 183.593C161.679 183.58 161.61 183.52 161.58 183.443L161.58 183.44C161.107 182.19 160.721 180.935 160.357 179.679C160.178 179.052 160.005 178.422 159.838 177.794L159.597 176.849C159.522 176.533 159.444 176.219 159.365 175.903C159.059 174.642 158.789 173.377 158.546 172.107C158.429 171.471 158.323 170.834 158.226 170.195C158.121 169.556 158.025 168.917 157.926 168.278C157.829 167.638 157.727 166.999 157.623 166.361C157.513 165.724 157.39 165.088 157.266 164.453L156.893 162.548L156.8 162.072L156.701 161.597L156.501 160.647L156.103 158.747C155.968 158.114 155.842 157.479 155.697 156.848L154.846 153.059C154.709 152.426 154.55 151.798 154.399 151.169L153.934 149.283L153.458 147.401C153.381 147.087 153.293 146.775 153.209 146.463L152.953 145.526L151.925 141.781C151.57 140.536 151.206 139.294 150.86 138.047C150.687 137.423 150.514 136.799 150.346 136.174L150.221 135.705L150.089 135.238L149.828 134.303C149.48 133.057 149.15 131.805 148.825 130.551L148.586 129.608C148.507 129.295 148.419 128.983 148.335 128.67C148.168 128.044 148.028 127.41 147.923 126.765C147.818 126.119 147.745 125.464 147.717 124.793C147.702 124.458 147.7 124.119 147.713 123.775C147.726 123.43 147.748 123.082 147.809 122.722L147.811 122.709C147.834 122.572 147.964 122.481 148.1 122.504C148.159 122.514 148.21 122.544 148.246 122.584Z" fill="#00227B"/>
<path d="M62.773 183.41C62.6208 183.073 62.5163 182.738 62.4184 182.401C62.3205 182.063 62.2473 181.73 62.1823 181.394C62.0506 180.722 61.9799 180.054 61.9404 179.388C61.9223 179.054 61.9099 178.721 61.9107 178.389C61.9116 178.057 61.9247 177.727 61.9404 177.397L61.9963 176.406C62.0136 176.076 62.0342 175.746 62.0613 175.416C62.1642 174.099 62.2645 172.779 62.4192 171.468C62.4891 170.811 62.5673 170.155 62.6447 169.499C62.6825 169.171 62.7335 168.845 62.7779 168.517L62.917 167.536L63.2074 165.577C63.3094 164.925 63.4279 164.276 63.539 163.625C63.7661 162.324 63.98 161.022 64.2392 159.728C64.4909 158.433 64.7213 157.134 64.9788 155.841C65.2405 154.548 65.4955 153.254 65.7473 151.96C65.8115 151.636 65.869 151.311 65.939 150.989L66.1463 150.022L66.5602 148.088L66.974 146.155C67.0094 145.993 67.0415 145.832 67.0785 145.671L67.192 145.19L67.4191 144.227L68.3266 140.376C68.3999 140.055 68.4821 139.736 68.5636 139.416C68.6426 139.096 68.7232 138.776 68.7989 138.456C68.9519 137.814 69.1033 137.172 69.249 136.529C69.3979 135.886 69.5435 135.242 69.6974 134.601C69.8455 133.957 70.0314 133.325 70.2173 132.691C70.4074 132.06 70.609 131.431 70.8204 130.805C71.0327 130.18 71.2581 129.558 71.486 128.937L71.8382 128.01C71.8974 127.856 71.9632 127.703 72.0274 127.55C72.0924 127.398 72.1549 127.244 72.2224 127.092C72.4882 126.483 72.7572 125.877 73.0435 125.276C73.3266 124.674 73.6219 124.076 73.9321 123.485C74.2423 122.893 74.564 122.305 74.9211 121.73C74.9894 121.619 75.135 121.585 75.2461 121.654C75.3218 121.701 75.3621 121.783 75.358 121.867V121.87C75.2099 124.574 74.7014 127.148 74.1995 129.72C74.0703 130.362 73.9387 131.002 73.7939 131.64C73.6483 132.277 73.4919 132.91 73.3257 133.54C72.9785 134.797 72.6297 136.054 72.266 137.307C72.0842 137.934 71.9073 138.562 71.732 139.191C71.6432 139.504 71.5601 139.82 71.4753 140.135C71.3922 140.45 71.3067 140.765 71.2359 141.084L70.3383 144.893L70.1137 145.846L70.0018 146.322C69.9648 146.481 69.9327 146.64 69.8981 146.799L69.4884 148.713L69.0786 150.626L68.8738 151.584C68.8055 151.902 68.7479 152.224 68.6845 152.543C67.633 157.656 66.9263 162.83 66.2393 167.994L65.9727 169.929C65.8896 170.575 65.8065 171.221 65.716 171.866L65.1862 175.736C65.0899 176.381 65.0126 177.026 64.9253 177.671C64.8801 177.993 64.8324 178.316 64.7723 178.637C64.7131 178.958 64.6547 179.279 64.5823 179.6C64.4383 180.241 64.2597 180.88 64.0483 181.517C63.943 181.836 63.8171 182.156 63.6879 182.474C63.5554 182.792 63.4115 183.111 63.2337 183.428L63.2321 183.432C63.163 183.555 63.0075 183.599 62.8841 183.53C62.8322 183.5 62.7952 183.458 62.773 183.41Z" fill="#00227B"/>
<path d="M91.4624 161.99C85.8273 164.262 77.106 163.787 71.1607 163.07C67.5949 162.641 65.0912 159.363 65.617 155.824C66.0966 152.594 68.9508 150.245 72.2246 150.398C77.7856 150.658 86.1276 150.779 91.4105 149.612" fill="white"/>
<g opacity="0.35">
<g opacity="0.35">
<g opacity="0.35">
<g opacity="0.35">
<path opacity="0.35" d="M91.4639 161.989C85.8271 164.265 77.1059 163.785 71.1606 163.073C67.5947 162.642 65.0919 159.363 65.6176 155.826C65.7221 155.104 65.95 154.426 66.2734 153.808C67.2122 155.593 68.9901 156.909 71.1606 157.172C77.0952 157.889 85.8016 158.364 91.4392 156.103L91.4639 161.989Z" fill="#00227B"/>
</g>
</g>
</g>
</g>
<path d="M80.2588 165.153C76.9982 165.153 73.7565 164.885 70.9805 164.551C68.8545 164.294 66.9679 163.219 65.6679 161.523C64.3655 159.823 63.8217 157.722 64.136 155.606C64.4223 153.678 65.4112 151.933 66.9202 150.694C68.4308 149.452 70.3396 148.819 72.2945 148.91C80.4867 149.292 87.1601 149.025 91.0855 148.158C91.8737 147.984 93.8319 147.978 94.9879 151.679C96.162 155.44 96.032 161.757 92.0243 163.373C88.7193 164.705 84.4738 165.153 80.2588 165.153ZM71.9209 151.882C69.507 151.882 67.455 153.633 67.0979 156.041C66.9029 157.354 67.2402 158.659 68.0482 159.714C68.8537 160.765 70.0228 161.431 71.3409 161.59C79.8425 162.614 86.7899 162.266 90.9012 160.608C92.1222 160.116 92.4727 158.145 92.5673 157.321C92.8964 154.436 92.0152 151.771 91.4632 151.126C86.1053 152.248 78.0316 152.162 72.1554 151.888C72.0764 151.883 71.9983 151.882 71.9209 151.882Z" fill="#00227B"/>
<path d="M134.566 161.99C140.201 164.262 148.923 163.787 154.868 163.07C158.434 162.641 160.937 159.363 160.412 155.824C159.932 152.594 157.078 150.245 153.804 150.398C148.243 150.658 139.901 150.779 134.618 149.612" fill="white"/>
<g opacity="0.35">
<g opacity="0.35">
<g opacity="0.35">
<g opacity="0.35">
<path opacity="0.35" d="M154.866 163.073C148.921 163.785 140.2 164.265 134.563 161.989L134.587 156.048C140.224 158.309 148.931 157.834 154.866 157.117C157.027 156.859 158.795 155.553 159.738 153.777C160.071 154.401 160.304 155.089 160.414 155.825C160.935 159.363 158.433 162.642 154.866 163.073Z" fill="#00227B"/>
</g>
</g>
</g>
</g>
<path d="M145.77 165.153C141.555 165.153 137.31 164.705 134.004 163.373C129.997 161.757 129.867 155.439 131.041 151.679C132.196 147.978 134.155 147.984 134.943 148.157C138.869 149.025 145.543 149.292 153.734 148.91C155.691 148.819 157.598 149.452 159.109 150.693C160.617 151.933 161.606 153.677 161.893 155.606C162.207 157.722 161.662 159.823 160.361 161.522C159.061 163.219 157.174 164.294 155.048 164.55C152.272 164.885 149.03 165.153 145.77 165.153ZM134.566 151.126C134.014 151.771 133.133 154.436 133.462 157.321C133.556 158.145 133.906 160.116 135.128 160.609C139.24 162.266 146.187 162.615 154.689 161.59C156.006 161.431 157.176 160.765 157.981 159.714C158.789 158.659 159.127 157.355 158.932 156.042C158.563 153.556 156.389 151.771 153.875 151.888C147.997 152.162 139.924 152.247 134.566 151.126Z" fill="#00227B"/>
<path d="M136.744 145.522V165.358C136.744 169.038 133.72 172.051 130.025 172.051H93.3467C89.6566 172.051 86.6322 169.038 86.6322 165.358V145.522C86.6322 141.842 89.6566 138.834 93.3467 138.834H130.025C132.2 138.834 134.142 139.878 135.373 141.485C136.232 142.608 136.744 144.008 136.744 145.522Z" fill="white"/>
<g opacity="0.35">
<g opacity="0.35">
<g opacity="0.35">
<g opacity="0.35">
<path opacity="0.35" d="M136.743 145.522V165.358C136.743 169.038 133.72 172.049 130.025 172.049H93.3479C89.6529 172.049 86.63 169.038 86.63 165.358V157.939C92.1384 163.532 102.972 167.044 112.907 167.096C116.1 167.113 118.675 164.598 118.903 161.426C118.905 161.394 118.908 161.362 118.91 161.331C119.155 158.548 121.456 156.295 124.253 156.094C127.439 155.865 130.129 158.209 130.444 161.255C135.253 155.342 133.844 145.064 135.374 141.485C136.234 142.609 136.743 144.007 136.743 145.522Z" fill="#00227B"/>
</g>
</g>
</g>
</g>
<path d="M130.026 173.541H93.3472C88.8187 173.541 85.1344 169.871 85.1344 165.361V145.522C85.1344 141.012 88.8187 137.342 93.3472 137.342H130.026C134.554 137.342 138.239 141.012 138.239 145.522V165.361C138.239 169.871 134.554 173.541 130.026 173.541ZM93.3472 140.323C90.4692 140.323 88.1276 142.655 88.1276 145.522V165.361C88.1276 168.227 90.4692 170.559 93.3472 170.559H130.026C132.904 170.559 135.246 168.227 135.246 165.361V145.522C135.246 142.655 132.904 140.323 130.026 140.323H93.3472Z" fill="#00227B"/>
<path d="M124.68 161.21C127.879 161.21 130.473 158.627 130.473 155.441C130.473 152.255 127.879 149.672 124.68 149.672C121.481 149.672 118.888 152.255 118.888 155.441C118.888 158.627 121.481 161.21 124.68 161.21Z" fill="#22A7F0"/>
<g opacity="0.7">
<g opacity="0.7">
<g opacity="0.7">
<g opacity="0.7">
<path opacity="0.7" d="M130.472 155.441C130.472 155.836 130.435 156.219 130.36 156.594C129.825 153.956 127.485 151.971 124.682 151.971C121.875 151.971 119.535 153.956 119 156.594C118.925 156.219 118.887 155.837 118.887 155.441C118.887 152.253 121.481 149.673 124.682 149.673C127.877 149.673 130.472 152.253 130.472 155.441Z" fill="white"/>
</g>
</g>
</g>
</g>
<g opacity="0.35">
<g opacity="0.35">
<g opacity="0.35">
<g opacity="0.35">
<path opacity="0.35" d="M130.471 155.44C130.471 158.625 127.879 161.208 124.68 161.208C121.482 161.208 118.89 158.625 118.89 155.44C118.89 154.703 119.029 154 119.287 153.353C120.122 155.505 122.223 157.028 124.681 157.028C127.14 157.028 129.24 155.505 130.075 153.353C130.332 154 130.471 154.703 130.471 155.44Z" fill="#00227B"/>
</g>
</g>
</g>
</g>
<path d="M124.68 162.328C120.868 162.328 117.766 159.238 117.766 155.441C117.766 151.643 120.868 148.554 124.68 148.554C128.493 148.554 131.595 151.643 131.595 155.441C131.595 159.238 128.493 162.328 124.68 162.328ZM124.68 150.79C122.106 150.79 120.011 152.877 120.011 155.441C120.011 158.005 122.106 160.091 124.68 160.091C127.255 160.091 129.35 158.005 129.35 155.441C129.35 152.877 127.255 150.79 124.68 150.79Z" fill="#00227B"/>
<path d="M108.268 173.168C107.647 173.168 107.145 172.667 107.145 172.05V158.463L99.8104 152.963V138.833C99.8104 138.215 100.313 137.715 100.933 137.715C101.552 137.715 102.055 138.215 102.055 138.833V151.847L109.39 157.347V172.05C109.39 172.667 108.887 173.168 108.268 173.168Z" fill="#00227B"/>
<path d="M112.406 182.73C118.894 182.73 125.133 180.332 130.006 176.065C136.756 170.155 148.119 163.107 160.662 167.628C165.694 169.441 169.124 172.767 171.464 176.447C177.49 162.541 190.13 161.707 195.602 169.589C195.602 169.589 186.405 213.29 183.408 214.263C179.114 215.656 168.796 214.191 168.796 214.191C168.796 214.191 132.902 209.351 112.406 209.351C91.9091 209.351 56.0153 214.191 56.0153 214.191C56.0153 214.191 45.6979 215.655 41.4039 214.263C38.4066 213.29 29.2097 169.589 29.2097 169.589C34.6803 161.707 47.322 162.541 53.3479 176.447C55.687 172.766 59.1171 169.441 64.15 167.628C76.6921 163.107 88.0553 170.155 94.8052 176.065C99.6785 180.332 105.917 182.73 112.406 182.73Z" fill="white"/>
<g opacity="0.35">
<path d="M195.603 169.587C195.603 169.587 186.405 213.29 183.408 214.263C179.116 215.657 168.796 214.192 168.796 214.192C168.796 214.192 132.904 209.351 112.405 209.351C91.9112 209.351 56.0149 214.192 56.0149 214.192C56.0149 214.192 45.6983 215.657 41.4068 214.263C38.4095 213.29 29.2118 169.587 29.2118 169.587C30.1136 168.29 31.2062 167.228 32.4338 166.423C35.3825 179.237 39.5655 195.967 41.4068 196.564C45.6991 197.954 56.0149 196.489 56.0149 196.489C56.0149 196.489 91.9112 186.806 112.405 186.806C132.904 186.806 168.796 196.489 168.796 196.489C168.796 196.489 179.116 197.954 183.408 196.564C185.249 195.967 189.432 179.237 192.381 166.423C193.609 167.229 194.701 168.291 195.603 169.587Z" fill="#00227B"/>
</g>
<path d="M46.9378 216.35C44.6867 216.35 42.4875 216.182 40.9407 215.681C39.8859 215.338 38.999 214.174 37.3345 209.009C36.3604 205.986 35.1912 201.777 33.8608 196.497C31.4649 186.993 29.1299 176.333 28.2372 172.192C27.7699 170.023 28.4832 167.781 30.1 166.34C33.2034 163.573 37.3633 162.507 41.5117 163.417C44.1264 163.99 46.6704 165.35 48.8688 167.349C50.6896 169.005 52.2726 171.073 53.5923 173.519C56.2704 170.115 59.642 167.667 63.6423 166.226C68.1749 164.592 72.9173 164.267 77.7387 165.261C81.6312 166.065 85.5895 167.729 89.5025 170.21C90.2002 170.653 90.4051 171.574 89.9616 172.269C89.5182 172.964 88.5926 173.168 87.8949 172.726C79.8408 167.619 72.0238 166.376 64.6609 169.03C60.5084 170.527 57.1277 173.29 54.6142 177.245C54.3171 177.713 53.784 177.977 53.2319 177.935C52.679 177.891 52.1952 177.547 51.9747 177.039C49.4571 171.228 45.4091 167.325 40.8683 166.33C37.671 165.629 34.4738 166.443 32.0968 168.563C31.279 169.292 30.9219 170.443 31.1646 171.568C32.0071 175.477 34.2154 185.563 36.5159 194.778C37.7805 199.843 38.9011 203.965 39.8472 207.025C41.1719 211.312 41.8638 212.569 42.1098 212.92C45.4914 213.864 53.097 213.102 55.8055 212.717C55.8088 212.717 55.8121 212.717 55.8154 212.716C56.1749 212.667 92.0449 207.862 112.407 207.862C132.769 207.862 168.638 212.667 168.998 212.716C169.001 212.717 169.005 212.717 169.008 212.717C171.718 213.102 179.323 213.864 182.704 212.92C182.946 212.576 183.619 211.355 184.899 207.243C185.823 204.278 186.917 200.283 188.151 195.367C190.351 186.603 192.46 177.067 193.521 172.163C193.869 170.556 193.264 168.909 191.981 167.967C189.531 166.168 186.495 165.631 183.434 166.455C179.047 167.636 175.284 171.395 172.839 177.04C172.62 177.547 172.136 177.892 171.582 177.936C171.028 177.979 170.497 177.713 170.2 177.246C167.686 173.292 164.306 170.527 160.154 169.031C152.726 166.354 144.842 167.64 136.719 172.855C136.024 173.301 135.098 173.101 134.65 172.409C134.202 171.717 134.402 170.795 135.098 170.348C139.034 167.821 143.018 166.119 146.938 165.291C151.807 164.262 156.596 164.577 161.172 166.227C165.173 167.668 168.544 170.117 171.223 173.521C174.035 168.316 178.028 164.821 182.653 163.577C186.557 162.525 190.604 163.25 193.758 165.566C195.988 167.204 197.043 170.039 196.448 172.791C195.324 177.986 193.096 188.052 190.804 197.088C189.505 202.212 188.363 206.295 187.411 209.221C185.787 214.215 184.915 215.345 183.872 215.682C179.321 217.159 169.113 215.744 168.593 215.67C168.03 215.595 132.508 210.844 112.407 210.844C92.3032 210.844 56.7846 215.595 56.2218 215.67C55.8763 215.717 51.3108 216.35 46.9378 216.35Z" fill="#00227B"/>
<path d="M180.742 214.263H183.408C186.538 214.263 189.376 212.435 190.65 209.588C194.64 200.688 201.916 181.131 195.101 169.197C194.903 168.848 194.691 168.513 194.466 168.192C194.466 168.192 187.923 162.265 183.223 170.65C178.833 178.483 169.617 211.976 180.742 214.263Z" fill="#AFAFB2"/>
<g opacity="0.7">
<g opacity="0.7">
<g opacity="0.7">
<g opacity="0.7">
<path opacity="0.7" d="M180.816 176.233C180.934 176.045 181.051 175.868 181.166 175.703C186.945 167.318 194.99 173.246 194.99 173.246C195.266 173.567 195.528 173.902 195.77 174.25C196.577 175.399 197.223 176.618 197.727 177.894C197.401 174.759 196.587 171.796 195.101 169.197C194.903 168.849 194.691 168.514 194.466 168.193C194.466 168.193 187.924 162.265 183.223 170.65C182.51 171.92 181.673 173.859 180.816 176.233Z" fill="white"/>
</g>
</g>
</g>
</g>
<path d="M197.691 178.788C197.624 178.788 197.556 178.782 197.487 178.771L181.133 176.052C180.461 175.94 180.007 175.307 180.119 174.636C180.231 173.967 180.868 173.514 181.539 173.626L197.892 176.345C198.564 176.456 199.019 177.09 198.907 177.76C198.806 178.363 198.284 178.788 197.691 178.788Z" fill="#00227B"/>
<path d="M197.587 187.588C197.532 187.588 197.477 187.585 197.421 187.576L178.291 185.015C177.616 184.925 177.142 184.306 177.232 183.633C177.323 182.96 177.944 182.488 178.62 182.579L197.75 185.14C198.426 185.23 198.9 185.849 198.809 186.522C198.726 187.14 198.196 187.588 197.587 187.588Z" fill="#00227B"/>
<path d="M195.9 196.207C195.85 196.207 195.8 196.204 195.749 196.198L176.329 193.831C175.653 193.748 175.171 193.135 175.254 192.462C175.337 191.788 175.951 191.308 176.629 191.391L196.048 193.758C196.725 193.841 197.206 194.454 197.124 195.127C197.047 195.751 196.515 196.207 195.9 196.207Z" fill="#00227B"/>
<path d="M192.82 205.607C192.783 205.607 192.746 205.606 192.708 205.603L175.346 204.042C174.667 203.982 174.167 203.383 174.228 202.707C174.289 202.031 174.889 201.532 175.568 201.594L192.93 203.154C193.609 203.215 194.11 203.813 194.048 204.489C193.99 205.127 193.451 205.607 192.82 205.607Z" fill="#00227B"/>
<g opacity="0.35">
<g opacity="0.35">
<g opacity="0.35">
<g opacity="0.35">
<path opacity="0.35" d="M180.741 214.263H183.407C186.537 214.263 189.375 212.435 190.649 209.588C191.681 207.281 192.936 204.264 194.109 200.845C192.509 203.49 189.257 205.167 185.687 205.167H182.51C177.988 204.387 176.286 199.97 176.219 194.181C174.69 203.953 175.11 213.105 180.741 214.263Z" fill="#00227B"/>
</g>
</g>
</g>
</g>
<path d="M183.408 215.492H180.743C180.659 215.492 180.576 215.484 180.493 215.467C178.338 215.023 176.71 213.632 175.653 211.33C173.161 205.903 174.372 196.449 175.827 189.474C177.606 180.95 180.353 173.25 182.146 170.051C183.795 167.109 185.872 165.415 188.319 165.017C192.073 164.408 195.167 167.165 195.297 167.282C195.365 167.344 195.426 167.413 195.479 167.488C195.725 167.839 195.959 168.21 196.176 168.589C199.291 174.044 199.951 181.505 198.141 190.764C196.668 198.292 193.868 205.428 191.778 210.089C190.308 213.371 187.023 215.492 183.408 215.492ZM180.877 213.034H183.408C186.049 213.034 188.45 211.485 189.523 209.088C191.56 204.544 194.288 197.595 195.717 190.296C197.412 181.63 196.844 174.735 194.029 169.805C193.876 169.536 193.712 169.274 193.542 169.023C193.08 168.647 190.979 167.068 188.703 167.446C187.042 167.722 185.561 169.002 184.302 171.249C182.641 174.211 179.954 181.781 178.245 189.974C176.294 199.326 176.17 206.547 177.898 210.308C178.599 211.835 179.574 212.728 180.877 213.034Z" fill="#00227B"/>
<path d="M44.0713 214.263H41.4055C38.2757 214.263 35.438 212.435 34.1636 209.588C30.1732 200.688 22.8975 181.131 29.7124 169.197C29.9107 168.848 30.123 168.513 30.3476 168.192C30.3476 168.192 36.8902 162.265 41.5906 170.65C45.9809 178.483 55.1958 211.976 44.0713 214.263Z" fill="#AFAFB2"/>
<g opacity="0.7">
<g opacity="0.7">
<g opacity="0.7">
<g opacity="0.7">
<path opacity="0.7" d="M43.9965 176.233C43.8789 176.045 43.7612 175.868 43.6469 175.703C37.8678 167.318 29.822 173.246 29.822 173.246C29.5464 173.567 29.2839 173.902 29.042 174.25C28.2349 175.399 27.5899 176.618 27.0855 177.894C27.4113 174.759 28.225 171.796 29.7109 169.197C29.9092 168.849 30.1215 168.514 30.3461 168.193C30.3461 168.193 36.8887 162.265 41.5892 170.65C42.3017 171.92 43.1392 173.859 43.9965 176.233Z" fill="white"/>
</g>
</g>
</g>
</g>
<path d="M27.1212 178.788C26.5288 178.788 26.0064 178.362 25.9052 177.761C25.7933 177.091 26.2466 176.458 26.9196 176.346L43.2729 173.627C43.945 173.515 44.581 173.967 44.6929 174.637C44.8048 175.307 44.3515 175.94 43.6785 176.052L27.3253 178.771C27.257 178.783 27.1887 178.788 27.1212 178.788Z" fill="#00227B"/>
<path d="M27.2246 187.588C26.6158 187.588 26.0859 187.14 26.0028 186.523C25.9123 185.85 26.3862 185.231 27.0617 185.141L46.1926 182.579C46.8689 182.488 47.4893 182.96 47.5806 183.633C47.6711 184.306 47.1972 184.925 46.5217 185.015L27.3908 187.577C27.3349 187.585 27.2798 187.588 27.2246 187.588Z" fill="#00227B"/>
<path d="M28.9128 196.207C28.2982 196.207 27.7659 195.751 27.6894 195.127C27.6063 194.454 28.0876 193.841 28.7647 193.758L48.1844 191.39C48.8607 191.308 49.4761 191.787 49.5592 192.461C49.6423 193.135 49.161 193.748 48.4838 193.831L29.0642 196.198C29.0132 196.205 28.9622 196.207 28.9128 196.207Z" fill="#00227B"/>
<path d="M31.9928 205.607C31.361 205.607 30.8229 205.127 30.7653 204.489C30.7044 203.813 31.2046 203.215 31.8834 203.154L49.2453 201.594C49.9249 201.533 50.5239 202.031 50.5856 202.707C50.6465 203.383 50.1462 203.981 49.4675 204.042L32.1055 205.603C32.0677 205.606 32.0299 205.607 31.9928 205.607Z" fill="#00227B"/>
<g opacity="0.35">
<g opacity="0.35">
<g opacity="0.35">
<g opacity="0.35">
<path opacity="0.35" d="M44.0705 214.263H41.4047C38.2749 214.263 35.4372 212.435 34.1628 209.588C33.131 207.281 31.8763 204.264 30.7031 200.845C32.3033 203.49 35.5549 205.167 39.1249 205.167H42.3024C46.8243 204.387 48.5257 199.97 48.5932 194.181C50.1219 203.953 49.7015 213.105 44.0705 214.263Z" fill="#00227B"/>
</g>
</g>
</g>
</g>
<path d="M44.0707 215.492H41.4049C37.7905 215.492 34.5052 213.371 33.0358 210.088C30.9468 205.429 28.1461 198.293 26.6734 190.765C24.8625 181.506 25.5231 174.045 28.6381 168.589C28.8545 168.21 29.089 167.84 29.3342 167.489C29.3868 167.413 29.4477 167.345 29.516 167.283C29.646 167.165 32.7404 164.408 36.4938 165.018C38.9407 165.416 41.0182 167.109 42.667 170.051C44.4606 173.251 47.207 180.95 48.9858 189.474C50.4413 196.45 51.6524 205.904 49.1603 211.331C48.103 213.633 46.4748 215.024 44.32 215.467C44.2377 215.484 44.1538 215.492 44.0707 215.492ZM31.2701 169.024C31.0998 169.274 30.9369 169.536 30.7839 169.804C27.9684 174.735 27.3999 181.629 29.0956 190.296C30.5239 197.596 33.2513 204.544 35.2893 209.088C36.363 211.486 38.763 213.034 41.4041 213.034H43.9357C45.2382 212.729 46.2139 211.836 46.9149 210.308C48.6419 206.547 48.5193 199.325 46.5686 189.974C44.8589 181.78 42.1717 174.211 40.5114 171.249C39.2517 169.002 37.7708 167.722 36.1104 167.446C33.838 167.069 31.7383 168.643 31.2701 169.024Z" fill="#00227B"/>
<path d="M74.1618 213.141C73.9866 213.141 73.8089 213.1 73.6427 213.013C73.0931 212.727 72.8808 212.051 73.1688 211.504C77.856 202.584 77.9252 192.552 73.3745 181.688C69.9419 173.494 65.0267 167.887 64.9773 167.831C64.5676 167.368 64.612 166.662 65.0769 166.253C65.5418 165.845 66.251 165.888 66.6607 166.351C66.8705 166.588 71.8392 172.246 75.4198 180.764C77.5327 185.789 78.7109 190.763 78.9232 195.546C79.1897 201.56 77.9227 207.278 75.1574 212.54C74.9566 212.923 74.5658 213.141 74.1618 213.141Z" fill="#00227B"/>
<path d="M151.106 213.141C150.701 213.141 150.311 212.923 150.11 212.541C147.345 207.278 146.078 201.561 146.345 195.547C146.557 190.764 147.735 185.79 149.848 180.764C153.429 172.247 158.397 166.588 158.607 166.352C159.018 165.889 159.727 165.845 160.192 166.254C160.657 166.662 160.701 167.368 160.29 167.831C160.241 167.887 155.326 173.494 151.893 181.688C147.343 192.552 147.412 202.584 152.099 211.504C152.386 212.051 152.174 212.726 151.625 213.013C151.459 213.1 151.281 213.141 151.106 213.141Z" fill="#00227B"/>
<g opacity="0.35">
<path d="M149.604 105.726C148.309 107.202 146.947 108.603 145.528 109.919C142.161 113.042 138.471 115.7 134.523 117.806C127.855 121.369 120.457 123.367 112.667 123.403C105.055 123.437 97.8107 121.596 91.2443 118.249C86.9445 116.054 82.9368 113.217 79.3109 109.837C77.5074 108.152 75.7969 106.337 74.1917 104.403C77.0994 103.509 79.9881 102.472 82.6332 101.447C85.9185 93.5647 89.7501 85.492 94.2186 77.4194H130.594C134.287 84.094 137.546 90.7654 140.42 97.3359C143.16 98.9273 146.314 101.924 149.604 105.726Z" fill="#00227B"/>
</g>
<path d="M167.953 69.7335C167.32 69.8015 166.751 69.3451 166.683 68.7141L163.133 35.8089C163.065 35.1779 163.523 34.6116 164.156 34.5436C170.802 33.8323 176.768 38.6213 177.482 45.2402L178.694 56.4613C179.408 63.0802 174.599 69.0222 167.953 69.7335Z" fill="white"/>
<path d="M167.828 70.0236C167.501 70.0236 167.186 69.9138 166.928 69.7065C166.629 69.4664 166.442 69.1247 166.401 68.7444L162.851 35.8392C162.81 35.4589 162.92 35.0852 163.161 34.7878C163.402 34.4903 163.745 34.3035 164.127 34.2625C170.919 33.5356 177.036 38.4467 177.766 45.2107L178.976 56.4318C179.33 59.7081 178.381 62.9253 176.305 65.4911C174.229 68.0569 171.273 69.6639 167.984 70.0162L167.954 69.7343L167.984 70.0162C167.932 70.0212 167.88 70.0236 167.828 70.0236ZM165.459 34.7566C165.039 34.7566 164.615 34.7788 164.188 34.8247C163.957 34.8492 163.749 34.9623 163.604 35.1418C163.458 35.3221 163.391 35.5474 163.416 35.7777L166.966 68.683C166.991 68.9132 167.105 69.1197 167.286 69.2648C167.467 69.4098 167.693 69.4762 167.924 69.4516C171.063 69.1156 173.882 67.5824 175.863 65.1346C177.844 62.6869 178.749 59.6171 178.412 56.4908L177.201 45.2697C176.55 39.2425 171.414 34.7566 165.459 34.7566Z" fill="#00227B"/>
<g opacity="0.35">
<g opacity="0.35">
<g opacity="0.35">
<g opacity="0.35">
<path opacity="0.35" d="M178.126 51.1994L178.695 56.4621C179.409 63.0785 174.6 69.0222 167.954 69.7359C167.321 69.8048 166.752 69.3442 166.684 68.7141L165.737 59.967C165.957 60.3464 166.388 60.5791 166.853 60.5332L167.636 60.4472C172.887 59.8858 176.995 56.0548 178.126 51.1994Z" fill="#00227B"/>
</g>
</g>
</g>
</g>
<path d="M167.826 71.3176C167.204 71.3176 166.605 71.1078 166.114 70.7136C165.544 70.2572 165.188 69.6065 165.11 68.8829L161.56 35.9777C161.482 35.2541 161.691 34.5428 162.15 33.9757C162.608 33.4086 163.261 33.0538 163.988 32.976C171.49 32.1729 178.25 37.5994 179.057 45.0722L180.267 56.2933C180.658 59.913 179.61 63.4678 177.316 66.3032C175.022 69.1378 171.757 70.9136 168.122 71.302C168.024 71.3119 167.925 71.3176 167.826 71.3176ZM167.787 68.1659H167.786C167.786 68.1659 167.786 68.1659 167.787 68.1659ZM164.755 36.0744L168.212 68.1126C170.834 67.7258 173.179 66.3917 174.852 64.3242C176.616 62.1452 177.421 59.4131 177.121 56.6301L175.911 45.409C175.306 39.8071 170.349 35.7007 164.755 36.0744Z" fill="#00227B"/>
<path d="M55.1084 46.2153C55.7419 46.1473 56.3105 46.6038 56.3788 47.2348L59.929 80.14C59.9973 80.771 59.539 81.3373 58.9055 81.4053C52.26 82.1166 46.2942 77.3276 45.58 70.7087L44.3697 59.4876C43.6539 52.8687 48.463 46.9266 55.1084 46.2153Z" fill="white"/>
<path d="M57.6024 81.7585C51.3609 81.7593 45.9776 77.0572 45.2963 70.739L44.0861 59.5179C43.3563 52.754 48.2871 46.6603 55.0782 45.9335L55.1086 46.2153L55.0782 45.9335C55.8655 45.849 56.5764 46.4194 56.6612 47.2045L60.2114 80.1097C60.2961 80.8948 59.7235 81.602 58.9353 81.6864C58.4885 81.7347 58.0426 81.7585 57.6024 81.7585ZM55.232 46.4915C55.2008 46.4915 55.1703 46.4932 55.1382 46.4964C48.659 47.1897 43.9544 53.0039 44.6513 59.4573L45.8616 70.6784C46.5576 77.1317 52.3943 81.8175 58.8744 81.1242C59.3508 81.0734 59.6972 80.6457 59.6461 80.1712L56.0959 47.2659C56.0482 46.8218 55.6697 46.4915 55.232 46.4915Z" fill="#00227B"/>
<g opacity="0.35">
<g opacity="0.35">
<g opacity="0.35">
<g opacity="0.35">
<path opacity="0.35" d="M58.9472 71.0111L59.9312 80.1401C60.0003 80.7711 59.5379 81.3374 58.9052 81.4054C55.4167 81.7774 52.1125 80.6359 49.659 78.5069C47.4433 76.5844 45.9212 73.8523 45.5814 70.7104L45.0713 65.982C47.4055 69.9286 51.92 72.3682 56.7924 71.8478L57.9977 71.7183C58.4371 71.6708 58.7851 71.3881 58.9472 71.0111Z" fill="#00227B"/>
</g>
</g>
</g>
</g>
<path d="M57.6017 83.0516C50.7053 83.0524 44.7584 77.8578 44.0055 70.8767L42.7952 59.6556C41.9889 52.1828 47.4373 45.45 54.94 44.6469C56.4391 44.4863 57.7917 45.5712 57.953 47.0651L61.5032 79.9712C61.6645 81.4659 60.5751 82.8115 59.0744 82.9721C58.5799 83.0262 58.0879 83.0516 57.6017 83.0516ZM54.8512 47.8371C49.3058 48.6566 45.3384 53.7176 45.9423 59.3196L47.1526 70.5407C47.7573 76.1426 52.7136 80.2482 58.3076 79.8753L54.8512 47.8371Z" fill="#00227B"/>
<path d="M111.537 114.37C142.808 114.37 168.159 89.1208 168.159 57.974C168.159 26.8271 142.808 1.57764 111.537 1.57764C80.265 1.57764 54.9143 26.8271 54.9143 57.974C54.9143 89.1208 80.265 114.37 111.537 114.37Z" fill="white"/>
<path d="M111.482 114.655C104.54 114.655 97.7576 113.415 91.2916 110.96C84.4157 108.351 78.1866 104.485 72.7753 99.4714C67.364 94.4571 63.0445 88.547 59.9353 81.9051C56.7167 75.0281 54.9444 67.6643 54.6672 60.0178C54.3899 52.3712 55.6248 44.8993 58.3375 37.8091C60.9572 30.9608 64.839 24.7565 69.8726 19.3668C74.9063 13.9771 80.8417 9.67408 87.511 6.57728C94.4156 3.37149 101.809 1.60634 109.486 1.33018C117.163 1.05401 124.665 2.28405 131.784 4.98586C138.66 7.59507 144.889 11.4614 150.3 16.4749C155.711 21.4893 160.031 27.3993 163.14 34.0412C166.359 40.9182 168.131 48.2821 168.408 55.9286C168.685 63.5751 167.451 71.0471 164.738 78.1372C162.118 84.9856 158.236 91.1898 153.202 96.5795C148.167 101.969 142.234 106.271 135.565 109.368C128.661 112.574 121.267 114.339 113.59 114.615C112.885 114.642 112.182 114.655 111.482 114.655ZM111.564 1.85956C110.879 1.85956 110.196 1.87185 109.506 1.89644C78.4614 3.01256 54.1159 29.076 55.2357 59.9965C55.7779 74.9748 62.1444 88.8469 73.162 99.056C83.6695 108.793 97.2097 114.087 111.486 114.088C112.179 114.088 112.872 114.075 113.568 114.05C128.606 113.51 142.534 107.169 152.784 96.1952C163.034 85.2216 168.38 70.9291 167.838 55.9507C166.744 25.717 141.697 1.85956 111.564 1.85956Z" fill="#00227B"/>
<g opacity="0.35">
<g opacity="0.35">
<g opacity="0.35">
<g opacity="0.35">
<path opacity="0.35" d="M167.299 48.1584C167.751 50.6938 168.029 53.2916 168.125 55.941C169.248 87.0671 144.829 113.21 113.578 114.335C82.3272 115.454 56.0795 91.1325 54.9498 60.0072C54.9169 59.1123 54.9054 58.2158 54.9161 57.3316C59.7243 84.63 84.125 104.904 112.718 103.877C143.071 102.785 166.975 78.0947 167.299 48.1584Z" fill="#00227B"/>
</g>
</g>
</g>
</g>
<path d="M111.482 115.948C104.38 115.948 97.4438 114.679 90.8296 112.169C83.7974 109.5 77.4251 105.546 71.8913 100.418C66.3574 95.2897 61.9391 89.2444 58.7592 82.4509C55.4665 75.4166 53.6539 67.8839 53.3709 60.0637C53.0879 52.2434 54.3508 44.6002 57.126 37.3478C59.8057 30.3438 63.7755 23.9969 68.9244 18.4851C74.0732 12.9733 80.1411 8.57193 86.9626 5.40548C94.0252 2.12594 101.588 0.320632 109.44 0.0387326C117.292 -0.243167 124.965 1.01473 132.247 3.77882C139.279 6.44785 145.651 10.4018 151.185 15.5301C156.719 20.6584 161.137 26.7036 164.317 33.4971C167.61 40.5315 169.422 48.0641 169.705 55.8844C169.988 63.7046 168.725 71.3479 165.95 78.6002C163.27 85.6043 159.301 91.9511 154.152 97.4629C149.003 102.975 142.933 107.375 136.113 110.543C129.05 113.822 121.487 115.627 113.636 115.909C112.917 115.935 112.198 115.948 111.482 115.948ZM111.564 3.15356C110.895 3.15356 110.228 3.16585 109.554 3.18962C79.2245 4.27952 55.4401 29.7423 56.5344 59.9506C57.0643 74.584 63.2843 88.1356 74.0477 98.1103C84.3133 107.623 97.5408 112.795 111.489 112.795C112.165 112.795 112.843 112.783 113.523 112.758C128.215 112.231 141.821 106.035 151.836 95.3151C161.85 84.5947 167.073 70.6316 166.543 55.9983C165.472 26.4603 141.002 3.15356 111.564 3.15356Z" fill="#00227B"/>
<path d="M167.996 57.3947C168.563 68.4158 165.496 78.8322 159.789 87.6112C155.51 94.1932 137.148 106.267 113.78 107.669C92.1125 108.968 71.7977 98.4627 66.8661 92.3511C60.2873 84.1981 56.1694 74.1489 55.6025 63.1277C54.1026 33.9618 78.6398 20.5871 109.678 19.0039C140.715 17.4207 166.496 28.2287 167.996 57.3947Z" fill="#3949AB"/>
<path d="M110.019 108.864C99.2447 108.864 89.8742 106.19 83.6542 103.8C75.7779 100.774 68.8543 96.5467 66.0166 93.0296C59.0519 84.3988 55.0747 74.0775 54.5144 63.1826C54.1425 55.9532 55.3396 49.3933 58.0704 43.6848C60.6415 38.3123 64.585 33.6577 69.7931 29.8488C79.3075 22.8898 93.0797 18.7654 109.621 17.9221C126.162 17.0789 140.285 19.7799 150.463 25.7342C156.034 28.9933 160.435 33.2226 163.544 38.3058C166.846 43.7061 168.71 50.1103 169.081 57.3397C169.641 68.2347 166.742 78.9059 160.7 88.2004C158.19 92.0618 151.954 96.795 144.428 100.552C137.817 103.852 127.145 107.953 113.844 108.75C112.552 108.827 111.275 108.864 110.019 108.864ZM115.461 19.9372C113.588 19.9372 111.679 19.9864 109.732 20.0856C93.617 20.9075 80.252 24.8877 71.0807 31.5951C60.8414 39.0843 55.9987 49.6752 56.6873 63.072C57.2238 73.5088 61.0364 83.3991 67.7123 91.6725C69.6985 94.1342 75.2702 98.2578 84.4374 101.779C91.1816 104.369 101.734 107.306 113.714 106.588C126.647 105.812 137.026 101.823 143.455 98.6143C152.07 94.3137 157.147 89.682 158.876 87.0228C164.668 78.1134 167.447 67.8872 166.91 57.4504C166.222 44.0536 160.317 34.0109 149.363 27.6026C140.737 22.5563 129.099 19.9372 115.461 19.9372Z" fill="#00227B"/>
<g opacity="0.5">
<g opacity="0.5">
<g opacity="0.5">
<g opacity="0.5">
<path d="M156.723 55.2866C157.429 49.8198 154.778 44.9746 150.801 44.4645C146.824 43.9545 143.027 47.9727 142.32 53.4396C141.613 58.9064 144.265 63.7516 148.242 64.2616C152.219 64.7717 156.016 60.7534 156.723 55.2866Z" fill="white"/>
</g>
</g>
</g>
</g>
<g opacity="0.5">
<g opacity="0.5">
<g opacity="0.5">
<g opacity="0.5">
<path d="M145.468 75.6066C146.138 73.1662 144.976 70.724 142.874 70.1517C140.771 69.5794 138.524 71.0938 137.854 73.5342C137.184 75.9746 138.346 78.4168 140.449 78.9891C142.551 79.5614 144.799 78.047 145.468 75.6066Z" fill="white"/>
</g>
</g>
</g>
</g>
<g opacity="0.35">
<path d="M155.667 30.7429C162.873 36.9218 167.391 45.6795 167.995 57.3931C168.562 68.4167 165.494 78.8322 159.79 87.6113C155.51 94.1933 137.146 106.267 113.778 107.671C105.528 108.169 97.4753 106.951 90.3896 104.913C119.077 102.577 141.439 87.767 146.746 79.6034C153.991 68.4609 157.882 55.2395 157.16 41.2543C156.971 37.5159 156.458 34.0159 155.667 30.7429Z" fill="#00227B"/>
</g>
<path d="M58.555 39.5579C58.2357 39.5579 57.9149 39.4588 57.6401 39.2531C56.9934 38.768 56.8444 37.869 57.2846 37.206C59.6344 33.3611 62.635 29.8471 66.2025 26.7626C69.6762 23.7601 73.716 21.1386 78.2091 18.9711C82.6084 16.8494 87.4709 15.1499 92.6609 13.919C97.804 12.6996 103.294 11.9342 108.981 11.6441C114.574 11.359 120.055 11.5515 125.27 12.2153C130.533 12.8856 135.537 14.0386 140.142 15.6407C144.854 17.2805 149.166 19.398 152.957 21.9343C156.854 24.5419 160.225 27.6083 162.978 31.0493C163.459 31.5795 163.508 32.3916 163.058 32.9816C162.55 33.6487 161.594 33.7782 160.925 33.2717L160.765 33.1537L160.645 33.0013C150.452 20.2044 131.677 13.524 109.137 14.6737C86.4713 15.83 68.512 24.6312 59.8632 38.8204L59.8237 38.8851L59.7718 38.9532C59.474 39.349 59.0174 39.5579 58.555 39.5579Z" fill="#00227B"/>
<g opacity="0.5">
<g opacity="0.5">
<g opacity="0.5">
<g opacity="0.5">
<path d="M69.1146 79.8344C69.1146 79.8344 58.566 51.5248 73.5452 39.2647C88.5244 27.0045 110.926 25.9088 110.476 27.3659C110.476 27.3659 85.9862 34.61 77.2871 54.6298C70.5791 70.0679 69.1146 79.8344 69.1146 79.8344Z" fill="white"/>
</g>
</g>
</g>
</g>
<path d="M162.853 217.508H62.43C59.1785 217.508 56.5423 214.882 56.5423 211.644C56.5423 209.778 58.0611 208.265 59.9346 208.265H165.348C167.222 208.265 168.741 209.778 168.741 211.644C168.741 214.883 166.105 217.508 162.853 217.508Z" fill="#E6E9FA"/>
<g opacity="0.3">
<g opacity="0.3">
<g opacity="0.3">
<g opacity="0.3">
<path opacity="0.3" d="M168.739 211.644C168.739 212.285 168.635 212.901 168.444 213.478C167.916 212.297 166.73 211.477 165.349 211.477H59.9354C58.9999 211.477 58.1508 211.853 57.537 212.469C57.245 212.76 57.0055 213.099 56.8377 213.479C56.6468 212.902 56.5423 212.287 56.5423 211.645C56.5423 210.714 56.92 209.868 57.5379 209.257C58.1517 208.642 59.0007 208.265 59.9362 208.265H165.349C167.224 208.264 168.739 209.777 168.739 211.644Z" fill="white"/>
</g>
</g>
</g>
</g>
<g opacity="0.35">
<g opacity="0.35">
<g opacity="0.35">
<g opacity="0.35">
<path opacity="0.35" d="M168.739 211.645C168.739 213.262 168.081 214.731 167.014 215.789C165.951 216.851 164.476 217.507 162.853 217.507H62.4317C59.1801 217.507 56.5415 214.883 56.5415 211.645C56.5415 211.022 56.7102 210.437 57.0088 209.934C57.8991 212.032 59.9946 213.508 62.4308 213.508H162.852C164.476 213.508 165.951 212.852 167.013 211.79C167.544 211.26 167.975 210.631 168.27 209.934C168.571 210.437 168.739 211.022 168.739 211.645Z" fill="#00227B"/>
</g>
</g>
</g>
</g>
<path d="M162.854 218.999H62.4306C58.3588 218.999 55.0464 215.7 55.0464 211.645C55.0464 208.96 57.2398 206.775 59.9352 206.775H165.349C168.044 206.775 170.238 208.96 170.238 211.645C170.238 215.699 166.925 218.999 162.854 218.999ZM59.9344 209.757C58.8895 209.757 58.0387 210.603 58.0387 211.645C58.0387 214.056 60.0084 216.018 62.4298 216.018H162.854C165.275 216.018 167.245 214.056 167.245 211.645C167.245 210.604 166.395 209.757 165.349 209.757H59.9344Z" fill="#00227B"/>
<path d="M174.603 142.244L164.781 208.263H60.5047L60.1493 205.875L50.6776 142.244C50.3675 140.154 51.9949 138.279 54.1127 138.279H171.167C173.29 138.279 174.913 140.154 174.603 142.244Z" fill="#FF66AC"/>
<path d="M174.603 142.244L164.781 208.263H60.5047L60.1493 205.875L50.6776 142.244C50.3675 140.154 51.9949 138.279 54.1127 138.279H171.167C173.29 138.279 174.913 140.154 174.603 142.244Z" fill="#E6E9FA"/>
<g opacity="0.5">
<g opacity="0.5">
<g opacity="0.5">
<g opacity="0.5">
<path opacity="0.5" d="M54.3805 146.342C54.0703 144.252 55.6977 142.377 57.8155 142.377H174.583L174.603 142.245C174.913 140.154 173.29 138.279 171.168 138.279H54.1139C51.9961 138.279 50.3687 140.154 50.6789 142.245L60.1497 205.876L60.5051 208.264H63.5979L54.3805 146.342Z" fill="white"/>
</g>
</g>
</g>
</g>
<g opacity="0.35">
<g opacity="0.35">
<g opacity="0.35">
<g opacity="0.35">
<path opacity="0.35" d="M167.877 138.279H159.657C162.774 149.651 161.054 175.332 140.948 188.753C115.707 205.602 70.2182 205.494 60.5607 205.875L60.9161 208.263H161.49L171.312 142.244C171.622 140.154 169.999 138.279 167.877 138.279Z" fill="#00227B"/>
</g>
</g>
</g>
</g>
<path d="M166.07 209.757H59.2134L49.1996 142.462C48.9873 141.037 49.4077 139.595 50.3523 138.504C51.2968 137.413 52.6683 136.788 54.1139 136.788H171.17C172.616 136.788 173.987 137.413 174.932 138.504C175.876 139.595 176.296 141.037 176.084 142.462L166.07 209.757ZM61.796 206.774H163.488L173.123 142.024C173.209 141.45 173.046 140.891 172.665 140.451C172.284 140.011 171.753 139.769 171.17 139.769H54.1139C53.5306 139.769 52.9999 140.012 52.619 140.451C52.238 140.891 52.0751 141.45 52.1607 142.024L61.796 206.774Z" fill="#00227B"/>
<g opacity="0.3">
<g opacity="0.3">
<g opacity="0.3">
<g opacity="0.3">
<path opacity="0.3" d="M68.8052 192.839C64.8493 184.154 61.9688 169.329 62.618 160.604C63.2671 151.88 68.3477 154.549 69.9225 165.725C74.1128 195.469 70.5708 196.717 68.8052 192.839Z" fill="white"/>
</g>
</g>
</g>
</g>
<path d="M126.265 165.781C126.393 164.666 126.541 163.54 126.321 162.406C126.223 162.283 126.134 162.157 126.036 162.034C125.712 161.918 125.396 161.766 125.059 161.682C122.686 161.071 120.28 160.83 117.837 161.039C114.65 161.313 111.725 162.292 109.21 164.31C108.299 165.038 107.469 165.86 106.619 166.657C106.391 166.873 106.216 166.963 105.896 166.818C105.143 166.477 104.332 166.324 103.508 166.283C101.299 166.183 99.328 166.895 97.4891 168.044C95.4964 169.295 93.8904 170.966 92.3946 172.755C91.7578 173.513 92.0054 174.358 92.9533 174.676C93.5514 174.871 94.1495 175.062 94.7477 175.257C96.181 175.719 97.6109 176.177 99.0401 176.638C99.0368 176.682 99.0409 176.705 99.0343 176.728C99.0228 176.755 99.0104 176.787 98.9907 176.814C98.3942 177.578 98.539 178.285 99.1676 178.948C99.2351 179.022 99.2935 179.11 99.3527 179.189C99.6818 179.62 100.018 180.056 100.367 180.505C99.8908 180.872 99.4226 181.183 99.0088 181.559C98.7998 181.749 98.6155 182.024 98.5365 182.297C98.4024 182.737 98.6311 183.187 99.0244 183.418C99.4416 183.668 99.871 183.657 100.259 183.378C100.752 183.029 101.223 182.651 101.724 182.27C102.197 182.891 102.645 183.478 103.095 184.059C103.611 184.72 103.967 184.833 104.766 184.613C104.912 184.568 105.056 184.536 105.228 184.495C105.24 184.665 105.253 184.802 105.26 184.93C105.362 186.988 105.456 189.05 105.569 191.103C105.621 192.076 106.393 192.536 107.276 192.119C108.073 191.744 108.87 191.348 109.651 190.926C111.452 189.95 113.091 188.755 114.399 187.166C116.035 185.167 116.941 182.933 116.517 180.295C116.499 180.191 116.586 180.013 116.677 179.96C117.48 179.444 118.304 178.961 119.108 178.442C120.925 177.263 122.385 175.73 123.527 173.9C125.079 171.411 125.935 168.68 126.265 165.781ZM100.222 174.689C98.5678 174.152 96.8523 173.595 95.09 173.024C96.9107 171.096 98.8377 169.413 101.433 168.702C102.554 168.395 103.85 168.421 104.615 168.731C103.162 170.706 101.706 172.681 100.222 174.689ZM114.139 183.16C113.719 184.496 112.916 185.584 111.927 186.555C110.698 187.747 109.267 188.637 107.72 189.448C107.627 187.555 107.532 185.703 107.438 183.89C109.777 182.983 112.064 182.099 114.363 181.209C114.452 181.84 114.343 182.509 114.139 183.16ZM122.777 170.486C122.024 172.255 121.037 173.866 119.628 175.2C118.541 176.224 117.309 177.045 116.01 177.775C112.491 179.754 108.718 181.118 104.861 182.272C104.673 182.326 104.558 182.316 104.433 182.144C104.164 181.763 103.862 181.396 103.578 181.02C103.559 180.999 103.552 180.963 103.525 180.896C103.624 180.818 103.729 180.74 103.835 180.659C106.036 178.975 108.248 177.298 110.449 175.611C111.085 175.13 111.113 174.304 110.524 173.827C110.113 173.491 109.571 173.496 109.096 173.852C107.771 174.858 106.45 175.865 105.128 176.875C104.143 177.626 103.165 178.373 102.142 179.155C101.791 178.698 101.452 178.28 101.146 177.841C101.094 177.763 101.146 177.564 101.217 177.467C102.39 175.723 103.554 173.97 104.775 172.256C105.983 170.555 107.356 168.983 108.866 167.541C110.282 166.178 111.818 164.975 113.673 164.258C114.863 163.797 116.09 163.483 117.358 163.348C117.473 163.332 117.64 163.446 117.722 163.552C119.011 165.212 120.285 166.875 121.562 168.541C121.946 169.037 122.324 169.542 122.719 170.032C122.838 170.18 122.852 170.306 122.777 170.486ZM123.541 168.163C122.267 166.501 121.023 164.884 119.778 163.26C119.779 163.223 119.79 163.18 119.796 163.14C121.246 163.313 122.7 163.49 124.169 163.665C124.142 165.241 123.908 166.684 123.541 168.163Z" fill="#00227B"/>
<path d="M122.721 170.032C122.325 169.542 121.948 169.036 121.564 168.54C120.287 166.874 119.013 165.211 117.724 163.551C117.642 163.445 117.475 163.331 117.36 163.347C116.092 163.482 114.865 163.796 113.675 164.258C111.819 164.975 110.284 166.178 108.868 167.54C107.358 168.983 105.985 170.554 104.777 172.256C103.556 173.97 102.392 175.723 101.219 177.466C101.148 177.563 101.096 177.762 101.148 177.84C101.453 178.28 101.792 178.697 102.144 179.154C103.167 178.372 104.145 177.624 105.131 176.874C106.452 175.864 107.773 174.857 109.098 173.851C109.573 173.495 110.114 173.491 110.526 173.826C111.115 174.303 111.088 175.13 110.451 175.611C108.25 177.297 106.038 178.975 103.837 180.658C103.731 180.739 103.625 180.817 103.527 180.895C103.554 180.963 103.561 180.998 103.58 181.019C103.864 181.395 104.166 181.762 104.435 182.143C104.56 182.315 104.675 182.325 104.863 182.271C108.72 181.117 112.493 179.753 116.012 177.774C117.31 177.045 118.543 176.223 119.63 175.199C121.038 173.865 122.026 172.254 122.779 170.485C122.853 170.306 122.838 170.18 122.721 170.032ZM118.858 172.569C117.176 173.831 114.795 173.523 113.531 171.87C112.259 170.219 112.58 167.849 114.247 166.569C115.883 165.314 118.265 165.638 119.541 167.29C120.802 168.931 120.495 171.336 118.858 172.569Z" fill="white"/>
<path d="M123.541 168.162C122.266 166.503 121.022 164.884 119.777 163.26C119.782 163.222 119.79 163.182 119.796 163.14C121.246 163.314 122.701 163.491 124.171 163.666C124.143 165.239 123.907 166.684 123.541 168.162Z" fill="#DB2C2C"/>
<path d="M104.616 168.732C103.161 170.704 101.705 172.681 100.223 174.69C98.5658 174.15 96.8503 173.595 95.0888 173.024C96.9112 171.094 98.8373 169.411 101.432 168.702C102.554 168.394 103.848 168.421 104.616 168.732Z" fill="#DB2C2C"/>
<path d="M111.925 186.555C110.697 187.748 109.267 188.639 107.719 189.448C107.625 187.557 107.531 185.705 107.438 183.89C109.777 182.984 112.063 182.101 114.365 181.208C114.453 181.841 114.342 182.508 114.141 183.161C113.72 184.498 112.917 185.585 111.925 186.555Z" fill="#DB2C2C"/>
<path d="M119.54 167.29C118.265 165.638 115.882 165.315 114.246 166.569C112.579 167.85 112.258 170.219 113.53 171.87C114.794 173.523 117.175 173.832 118.857 172.569C120.494 171.336 120.802 168.931 119.54 167.29ZM117.723 171.175C116.871 171.818 115.619 171.648 114.955 170.8C114.268 169.926 114.455 168.641 115.365 167.969C116.216 167.333 117.492 167.517 118.133 168.37C118.803 169.256 118.619 170.501 117.723 171.175Z" fill="#00227B"/>
<path d="M117.722 171.175C116.87 171.818 115.618 171.648 114.952 170.799C114.268 169.926 114.454 168.641 115.363 167.969C116.216 167.335 117.49 167.517 118.131 168.368C118.801 169.255 118.619 170.502 117.722 171.175Z" fill="#22A7F0"/>
<path d="M174.085 145.728C174.085 145.728 166.004 141.908 158.415 145.334C151.148 148.615 146.006 171.975 155.422 177.893C161.233 181.545 165.189 178.319 168.477 179.266C173.353 180.671 183.358 156.618 174.085 145.728Z" fill="white"/>
<g opacity="0.35">
<path d="M177.732 160.93C176.774 170.721 171.584 180.161 168.478 179.266C165.189 178.32 161.234 181.547 155.423 177.895C150.924 175.066 149.75 168.261 150.543 161.559C151.078 165.469 152.593 168.819 155.423 170.597C161.234 174.245 165.103 172.55 168.478 171.969C172.65 171.249 176.052 166.71 177.732 160.93Z" fill="#00227B"/>
</g>
<path d="M161.381 181.17C159.42 181.17 157.151 180.743 154.623 179.154C152.359 177.731 150.724 175.429 149.764 172.312C148.958 169.696 148.657 166.509 148.892 163.094C149.171 159.05 150.17 154.901 151.703 151.411C152.874 148.746 154.883 145.292 157.796 143.976C165.924 140.307 174.37 144.212 174.726 144.38L175.017 144.518L175.225 144.763C179.469 149.747 179.714 156.633 179.172 161.531C178.562 167.05 176.606 172.905 174.068 176.81C171.525 180.722 169.397 181.084 168.059 180.699C167.191 180.449 166.094 180.623 164.824 180.826C163.82 180.986 162.667 181.17 161.381 181.17ZM165.332 145.394C163.057 145.394 160.949 145.828 159.033 146.693C157.458 147.404 155.785 149.56 154.446 152.608C153.068 155.745 152.132 159.641 151.879 163.3C151.434 169.759 153.016 174.619 156.22 176.633C159.451 178.664 161.943 178.266 164.353 177.882C165.91 177.634 167.381 177.399 168.893 177.835C169.066 177.865 170.312 177.386 172.068 174.355C176.165 167.287 178.763 153.939 173.159 146.951C172.523 146.688 170.889 146.069 168.749 145.699C167.574 145.496 166.433 145.394 165.332 145.394Z" fill="#00227B"/>
</svg>
