<svg xmlns="http://www.w3.org/2000/svg" width="240" height="155" fill="none" viewBox="0 0 240 155"><path fill="#E4E7E7" d="M218.905 154.542L212.051 133.936C212.051 133.936 219.59 141.447 219.59 147.609L218.237 133.359C218.237 133.359 222.103 138.558 221.717 146.454C221.33 154.349 218.905 154.542 218.905 154.542Z"/><path fill="#E4E7E7" d="M71.7026 135.78L65.0127 115.67C65.0127 115.67 72.3711 123 72.3711 129.014L71.0504 115.106C71.0504 115.106 74.824 120.18 74.4466 127.886C74.0692 135.592 71.7026 135.78 71.7026 135.78Z"/><path fill="#E4E7E7" d="M176.119 145.059C176.131 158.288 149.791 154.219 117.544 154.247C85.2979 154.274 59.3562 158.388 59.3447 145.16C59.3333 131.931 85.6637 129.032 117.91 129.004C150.156 128.976 176.108 131.831 176.119 145.059Z"/><path fill="#252F40" d="M240 154.239H0V154.844H240V154.239Z"/><path fill="#A0616A" d="M153.52 127.194H149.304L147.298 110.997H153.52V127.194Z"/><path fill="#252F40" d="M145.824 125.995H154.423V131.094H141.174V130.627C141.174 129.399 141.664 128.22 142.536 127.351C143.408 126.483 144.591 125.995 145.824 125.995Z"/><path fill="#A0616A" d="M184.507 151.101H180.291L178.285 134.903H184.507V151.101Z"/><path fill="#252F40" d="M176.812 149.901H185.411V155H172.161V154.533C172.161 153.305 172.651 152.126 173.523 151.258C174.396 150.389 175.579 149.901 176.812 149.901Z"/><path fill="#A0616A" d="M203.953 102.981C204.244 102.629 204.455 102.218 204.569 101.776C204.684 101.334 204.7 100.873 204.616 100.424C204.532 99.9752 204.35 99.5503 204.084 99.1791C203.817 98.8079 203.472 98.4995 203.073 98.2755L193.282 58.5448L187.021 61.2279L198.667 99.6441C198.334 100.337 198.268 101.128 198.48 101.866C198.693 102.605 199.171 103.24 199.822 103.651C200.474 104.063 201.254 104.222 202.015 104.098C202.777 103.975 203.466 103.577 203.953 102.981Z"/><path fill="#A0616A" d="M196.316 22.6848C195.967 22.3209 195.542 22.0378 195.07 21.8554C194.599 21.6729 194.094 21.5956 193.589 21.6289C193.085 21.6621 192.594 21.8051 192.151 22.0478C191.708 22.2905 191.324 22.627 191.026 23.0336L175.871 24.7666L178.176 30.5893L191.959 28.0199C192.677 28.4737 193.539 28.6491 194.379 28.5128C195.219 28.3765 195.979 27.938 196.516 27.2804C197.054 26.6228 197.33 25.7917 197.293 24.9447C197.256 24.0977 196.909 23.2936 196.316 22.6848Z"/><path fill="#252F40" d="M171.342 98.8611L177.955 148.3L186.186 146.612C186.186 146.612 184.975 110.607 189.091 106.266C193.206 101.926 183.797 94.3219 183.797 94.3219L171.342 98.8611Z"/><path fill="#252F40" d="M174.076 85.2436L171.038 89.7828C171.038 89.7828 147.645 80.0994 147.645 95.5324C147.645 110.965 146.307 121.439 145.823 122.162C145.339 122.886 151.424 124.763 154.329 124.28C154.329 124.28 157.913 99.4001 157.671 97.9533C157.671 97.9533 180.618 109.16 184.975 108.195C189.333 107.231 190.362 103.816 191.089 101.887C191.815 99.9581 190.785 84.6384 190.785 84.6384L176.26 80.2231L174.076 85.2436Z"/><path fill="#C2C9D1" d="M174.486 57.9903L173.62 56.9552C173.62 56.9552 163.922 35.2192 167.732 29.3539C171.542 23.4886 188.167 22.6261 188.687 22.9711C189.207 23.3161 187.446 27.7956 188.658 29.8657C188.658 29.8657 175.779 32.6471 174.913 32.9921C174.047 33.3371 181.586 46.0872 181.586 46.0872L180.72 53.85L174.486 57.9903Z"/><path fill="#C2C9D1" d="M191.458 47.2947C191.458 47.2947 182.452 48.3298 182.106 48.3298C181.76 48.3298 181.586 46.0872 181.586 46.0872L173.62 56.9552C173.62 56.9552 169.695 88.4846 170.734 87.967C171.773 87.4495 190.938 90.4217 191.112 89.0416C191.285 87.6616 190.938 80.7613 191.458 80.4162C191.977 80.0712 200.463 58.6802 200.463 58.6802C200.463 58.6802 199.598 54.195 196.653 52.6425C193.709 51.0899 191.458 47.2947 191.458 47.2947Z"/><path fill="#C2C9D1" d="M197.692 55.7477L200.463 58.6803C200.463 58.6803 204.58 92.3791 202.329 93.4141C200.078 94.4492 195.646 94.3219 195.646 94.3219L191.285 78.3462L197.692 55.7477Z"/><path fill="#A0616A" d="M182.804 45.1606C187.206 45.1606 190.775 41.6057 190.775 37.2204C190.775 32.8352 187.206 29.2803 182.804 29.2803C178.402 29.2803 174.833 32.8352 174.833 37.2204C174.833 41.6057 178.402 45.1606 182.804 45.1606Z"/><path fill="#252F40" d="M180.934 38.4594C180.826 36.8119 178.739 36.7554 177.082 36.7398C175.424 36.7242 173.443 36.7832 172.505 35.4218C171.885 34.5222 172.004 33.2732 172.516 32.3086C173.028 31.3441 173.87 30.6022 174.698 29.8885C176.838 28.046 179.042 26.218 181.61 25.0387C184.179 23.8593 187.188 23.3828 189.852 24.3295C193.124 25.4925 197.547 31.479 197.929 34.9184C198.311 38.3579 196.931 41.8641 194.605 44.4343C192.279 47.0045 186.954 45.9675 183.604 46.8818C185.641 44.0101 184.298 38.7922 181.035 37.4512L180.934 38.4594Z"/><path fill="#FFD01D" d="M109.89 141.166C120.459 141.166 129.026 132.632 129.026 122.105C129.026 111.578 120.459 103.044 109.89 103.044C99.3216 103.044 90.7542 111.578 90.7542 122.105C90.7542 132.632 99.3216 141.166 109.89 141.166Z"/><path fill="#FFD01D" d="M97.1108 101.689C94.4586 101.69 91.8633 100.924 89.639 99.4855C87.4146 98.0469 85.6565 95.9969 84.5775 93.5836L54.2123 25.4683C53.2064 23.212 52.6744 20.7746 52.649 18.3059C52.6236 15.8373 53.1053 13.3895 54.0646 11.1131C55.0238 8.83674 56.4403 6.77981 58.2269 5.06877C60.0136 3.35773 62.1326 2.02874 64.4539 1.16347C66.7751 0.298198 69.2495 -0.0850619 71.7249 0.0372493C74.2003 0.159561 76.6245 0.784857 78.8484 1.8747C81.0722 2.96455 83.0489 4.49592 84.6567 6.37469C86.2646 8.25345 87.4698 10.4399 88.1981 12.7997L110.186 84.0381C110.816 86.0772 110.956 88.2349 110.597 90.3379C110.237 92.441 109.388 94.4307 108.116 96.1473C106.844 97.8639 105.186 99.2595 103.275 100.222C101.364 101.185 99.2525 101.687 97.1108 101.689H97.1108Z"/></svg>