<svg width="18" height="18" viewBox="0 0 18 18" fill="none" xmlns="http://www.w3.org/2000/svg">
<path d="M5.62473 13.6756C5.44594 13.6758 5.27321 13.6108 5.13888 13.4928L0.638875 9.55529C0.55973 9.48599 0.496307 9.40059 0.452854 9.30479C0.4094 9.20899 0.386921 9.10501 0.386921 8.99982C0.386921 8.89462 0.4094 8.79065 0.452854 8.69485C0.496307 8.59905 0.55973 8.51364 0.638875 8.44435L5.13888 4.50685C5.28624 4.3779 5.4788 4.31277 5.67418 4.32579C5.86957 4.33881 6.05178 4.42892 6.18073 4.57628C6.30968 4.72365 6.37481 4.91621 6.36179 5.11159C6.34877 5.30698 6.25866 5.48919 6.1113 5.61814L2.24587 8.99982L6.11095 12.3815C6.22407 12.4804 6.30432 12.6115 6.34099 12.7572C6.37765 12.9029 6.36898 13.0563 6.31613 13.197C6.26329 13.3376 6.16878 13.4588 6.04523 13.5443C5.92169 13.6299 5.77499 13.6757 5.62473 13.6756Z" fill="#67748E"/>
<path d="M12.3747 13.6756C12.2244 13.6757 12.0777 13.63 11.9541 13.5445C11.8305 13.459 11.7359 13.3378 11.683 13.1971C11.6302 13.0565 11.6215 12.903 11.6581 12.7573C11.6948 12.6115 11.775 12.4804 11.8882 12.3815L15.7536 8.99982L11.8885 5.61814C11.7412 5.48919 11.6511 5.30698 11.638 5.11159C11.625 4.91621 11.6901 4.72365 11.8191 4.57628C11.948 4.42892 12.1303 4.33881 12.3256 4.32579C12.521 4.31277 12.7136 4.3779 12.8609 4.50685L17.3609 8.44435C17.4401 8.51364 17.5035 8.59905 17.547 8.69485C17.5904 8.79065 17.6129 8.89462 17.6129 8.99982C17.6129 9.10501 17.5904 9.20899 17.547 9.30479C17.5035 9.40059 17.4401 9.48599 17.3609 9.55529L12.8609 13.4928C12.7266 13.6109 12.5537 13.6759 12.3747 13.6756Z" fill="#67748E"/>
<path d="M7.31223 15.3631C7.19726 15.3631 7.08388 15.3362 6.98113 15.2846C6.87839 15.233 6.7891 15.1582 6.72041 15.066C6.65171 14.9738 6.60549 14.8668 6.58543 14.7536C6.56538 14.6404 6.57204 14.5241 6.60489 14.4139L9.97989 3.16388C10.0053 3.06842 10.0496 2.97902 10.1102 2.901C10.1708 2.82298 10.2465 2.75791 10.3327 2.70965C10.4189 2.6614 10.5139 2.63093 10.6121 2.62007C10.7103 2.6092 10.8097 2.61815 10.9043 2.64639C10.999 2.67463 11.087 2.72158 11.1632 2.78446C11.2394 2.84735 11.3022 2.92489 11.3479 3.01248C11.3936 3.10008 11.4212 3.19595 11.4292 3.29442C11.4371 3.3929 11.4253 3.49196 11.3942 3.58576L8.01923 14.8358C7.97383 14.988 7.88051 15.1216 7.75313 15.2166C7.62576 15.3116 7.47114 15.363 7.31223 15.3631Z" fill="#67748E"/>
</svg>
