<svg xmlns="http://www.w3.org/2000/svg" width="18" height="18" fill="none" viewBox="0 0 18 18"><path fill="#67748E" d="M16.3125 2.8125H14.1996C14.1623 2.8125 14.1265 2.79768 14.1002 2.77131C14.0738 2.74494 14.059 2.70917 14.059 2.67188C14.059 2.49996 14.059 2.35547 14.059 2.24719C14.0582 1.94931 13.9394 1.66388 13.7285 1.45351C13.5176 1.24314 13.2319 1.125 12.934 1.125L5.06637 1.13414C4.76879 1.1347 4.48356 1.25313 4.2731 1.46352C4.06265 1.67391 3.94413 1.9591 3.94348 2.25668C3.94348 2.37023 3.94348 2.51051 3.94348 2.67188C3.94348 2.70917 3.92866 2.74494 3.90229 2.77131C3.87592 2.79768 3.84015 2.8125 3.80285 2.8125H1.6875C1.53832 2.8125 1.39524 2.87176 1.28975 2.97725C1.18426 3.08274 1.125 3.22582 1.125 3.375V3.9375C1.125 5.85457 2.17969 7.89082 3.81516 8.34434C3.86352 8.3578 3.90727 8.38425 3.94166 8.42081C3.97606 8.45738 3.99979 8.50267 4.01027 8.55176C4.21312 9.49711 4.83715 10.3975 5.81766 11.1396C6.55277 11.6961 7.42957 12.1064 8.21777 12.2815C8.28009 12.2955 8.3358 12.3302 8.37573 12.3801C8.41567 12.4299 8.43745 12.4918 8.4375 12.5557V15.6094C8.4375 15.6467 8.42268 15.6824 8.39631 15.7088C8.36994 15.7352 8.33417 15.75 8.29688 15.75H6.20332C5.90062 15.75 5.64082 15.9827 5.6257 16.2854C5.62204 16.3615 5.63385 16.4375 5.66043 16.5088C5.68701 16.5802 5.7278 16.6454 5.78033 16.7005C5.83286 16.7557 5.89603 16.7996 5.96602 16.8295C6.03601 16.8595 6.11136 16.875 6.1875 16.875H11.7967C12.0994 16.875 12.3592 16.6423 12.3743 16.3396C12.378 16.2635 12.3661 16.1875 12.3396 16.1162C12.313 16.0448 12.2722 15.9796 12.2197 15.9245C12.1671 15.8693 12.104 15.8254 12.034 15.7955C11.964 15.7655 11.8886 15.75 11.8125 15.75H9.70312C9.66583 15.75 9.63006 15.7352 9.60369 15.7088C9.57732 15.6824 9.5625 15.6467 9.5625 15.6094V12.5557C9.56255 12.4918 9.58433 12.4299 9.62427 12.3801C9.6642 12.3302 9.71991 12.2955 9.78223 12.2815C10.5704 12.1057 11.4472 11.6961 12.1823 11.1396C13.1629 10.3975 13.7869 9.49711 13.9897 8.55176C14.0002 8.50267 14.0239 8.45738 14.0583 8.42081C14.0927 8.38425 14.1365 8.3578 14.1848 8.34434C15.8203 7.89082 16.875 5.85457 16.875 3.9375V3.375C16.875 3.22582 16.8157 3.08274 16.7102 2.97725C16.6048 2.87176 16.4617 2.8125 16.3125 2.8125ZM3.9375 6.96867C3.93741 6.99331 3.93085 7.0175 3.91847 7.03881C3.9061 7.06012 3.88834 7.0778 3.86697 7.09009C3.84561 7.10237 3.82139 7.10882 3.79675 7.1088C3.77211 7.10878 3.7479 7.10228 3.72656 7.08996C3.36586 6.87516 3.10254 6.54961 2.9482 6.32039C2.52949 5.69848 2.28023 4.89059 2.25246 4.0834C2.25175 4.06449 2.25486 4.04564 2.26161 4.02796C2.26836 4.01029 2.27861 3.99416 2.29174 3.98053C2.30487 3.96691 2.32061 3.95608 2.33802 3.94869C2.35544 3.94129 2.37417 3.93749 2.39309 3.9375H3.79934C3.83663 3.9375 3.8724 3.95232 3.89877 3.97869C3.92515 4.00506 3.93996 4.04083 3.93996 4.07812C3.93926 5.04316 3.9375 6.14777 3.9375 6.96867ZM15.0514 6.32039C14.8971 6.54961 14.6341 6.87516 14.2734 7.08996C14.2521 7.1023 14.2278 7.10879 14.2032 7.1088C14.1785 7.10881 14.1542 7.10232 14.1329 7.09C14.1115 7.07767 14.0937 7.05994 14.0814 7.03858C14.069 7.01722 14.0625 6.99299 14.0625 6.96832C14.0625 6.03633 14.0625 4.97742 14.0607 4.07812C14.0607 4.04083 14.0756 4.00506 14.1019 3.97869C14.1283 3.95232 14.1641 3.9375 14.2014 3.9375H15.6076C15.6265 3.93749 15.6453 3.94129 15.6627 3.94869C15.6801 3.95608 15.6958 3.96691 15.709 3.98053C15.7221 3.99416 15.7323 4.01029 15.7391 4.02796C15.7458 4.04564 15.749 4.06449 15.7482 4.0834C15.7205 4.89059 15.4705 5.69848 15.0518 6.32039H15.0514Z"/></svg>