<svg width="18" height="18" viewBox="0 0 18 18" fill="none" xmlns="http://www.w3.org/2000/svg">
<path d="M16.7551 7.98219L16.7495 7.97973L1.73496 1.75215C1.60867 1.6993 1.47125 1.67857 1.33499 1.69182C1.19873 1.70507 1.06787 1.75189 0.954137 1.82809C0.833971 1.90683 0.735265 2.01421 0.666901 2.14057C0.598537 2.26692 0.56266 2.40829 0.562496 2.55196V6.53481C0.562563 6.73121 0.631142 6.92143 0.756413 7.0727C0.881684 7.22396 1.0558 7.32678 1.24875 7.36344L9.43769 8.87762C9.46987 8.88372 9.49891 8.90086 9.5198 8.92609C9.54069 8.95131 9.55212 8.98304 9.55212 9.01579C9.55212 9.04854 9.54069 9.08026 9.5198 9.10549C9.49891 9.13071 9.46987 9.14785 9.43769 9.15395L1.2491 10.6681C1.0562 10.7047 0.882099 10.8074 0.756772 10.9585C0.631445 11.1096 0.562742 11.2997 0.562496 11.4961V15.4796C0.562403 15.6168 0.596371 15.7519 0.661351 15.8727C0.726332 15.9935 0.820293 16.0963 0.934801 16.1718C1.07254 16.2634 1.23419 16.3123 1.39957 16.3125C1.51453 16.3124 1.62832 16.2893 1.73425 16.2446L16.7484 10.0525L16.7551 10.0494C16.9572 9.96252 17.1294 9.81832 17.2504 9.63462C17.3714 9.45091 17.4359 9.23576 17.4359 9.01579C17.4359 8.79581 17.3714 8.58066 17.2504 8.39695C17.1294 8.21325 16.9572 8.06905 16.7551 7.98219Z" fill="#67748E"/>
</svg>
