<svg width="18" height="18" viewBox="0 0 18 18" fill="none" xmlns="http://www.w3.org/2000/svg">
<path d="M9.1952 3.56062C9.14286 3.51056 9.07322 3.48261 9.00078 3.48261C8.92835 3.48261 8.85871 3.51056 8.80637 3.56062L2.33411 9.74355C2.30662 9.76985 2.28475 9.80144 2.26983 9.83643C2.2549 9.87142 2.24723 9.90907 2.24727 9.94711L2.24622 15.75C2.24622 16.0484 2.36474 16.3345 2.57572 16.5455C2.7867 16.7565 3.07285 16.875 3.37122 16.875H6.74973C6.89891 16.875 7.04199 16.8157 7.14748 16.7102C7.25297 16.6048 7.31223 16.4617 7.31223 16.3125V11.5312C7.31223 11.4567 7.34186 11.3851 7.39461 11.3324C7.44735 11.2796 7.51889 11.25 7.59348 11.25H10.406C10.4806 11.25 10.5521 11.2796 10.6049 11.3324C10.6576 11.3851 10.6872 11.4567 10.6872 11.5312V16.3125C10.6872 16.4617 10.7465 16.6048 10.852 16.7102C10.9575 16.8157 11.1005 16.875 11.2497 16.875H14.6268C14.9252 16.875 15.2114 16.7565 15.4223 16.5455C15.6333 16.3345 15.7518 16.0484 15.7518 15.75V9.94711C15.7519 9.90907 15.7442 9.87142 15.7293 9.83643C15.7144 9.80144 15.6925 9.76985 15.665 9.74355L9.1952 3.56062Z" fill="#67748E"/>
<path d="M17.2583 8.5834L14.6286 6.06762V2.25C14.6286 2.10082 14.5693 1.95774 14.4638 1.85225C14.3584 1.74676 14.2153 1.6875 14.0661 1.6875H12.3786C12.2294 1.6875 12.0863 1.74676 11.9808 1.85225C11.8754 1.95774 11.8161 2.10082 11.8161 2.25V3.375L9.77985 1.42805C9.5893 1.23539 9.30594 1.125 8.99973 1.125C8.69457 1.125 8.41192 1.23539 8.22137 1.4284L0.743637 8.5827C0.524965 8.79363 0.497544 9.14062 0.696528 9.36914C0.746496 9.42682 0.807678 9.47373 0.876352 9.50701C0.945025 9.5403 1.01975 9.55926 1.09599 9.56275C1.17222 9.56623 1.24837 9.55417 1.31979 9.52729C1.39122 9.50042 1.45643 9.45929 1.51145 9.40641L8.80637 2.43562C8.85871 2.38556 8.92835 2.35761 9.00078 2.35761C9.07322 2.35761 9.14286 2.38556 9.1952 2.43562L16.4908 9.40641C16.5983 9.50947 16.7422 9.56571 16.8911 9.56281C17.04 9.55991 17.1816 9.4981 17.285 9.39094C17.5009 9.16734 17.4829 8.7982 17.2583 8.5834Z" fill="#67748E"/>
</svg>
