<svg width="18" height="18" viewBox="0 0 18 18" fill="none" xmlns="http://www.w3.org/2000/svg">
<path d="M11.8119 9C11.0891 9 10.3902 8.67727 9.84317 8.09156C9.31125 7.52027 8.98641 6.75844 8.92911 5.94703C8.86793 5.08148 9.13196 4.28555 9.67231 3.70547C10.2127 3.12539 10.9682 2.8125 11.8119 2.8125C12.6497 2.8125 13.4073 3.13102 13.9459 3.70969C14.4898 4.29398 14.7545 5.08852 14.6933 5.94668C14.6346 6.75914 14.3101 7.52063 13.7793 8.09121C13.2336 8.67727 12.5351 9 11.8119 9Z" fill="#67748E"/>
<path d="M16.4466 15.1875H7.17762C7.0286 15.1883 6.88138 15.1549 6.74729 15.0899C6.6132 15.0248 6.49582 14.9299 6.40418 14.8124C6.30698 14.685 6.23985 14.5372 6.20783 14.3802C6.1758 14.2232 6.17971 14.061 6.21926 13.9057C6.51528 12.7171 7.24864 11.7313 8.33989 11.0552C9.30844 10.4555 10.5414 10.125 11.8119 10.125C13.1074 10.125 14.308 10.4414 15.2822 11.0408C16.3759 11.7134 17.1103 12.7048 17.4049 13.9078C17.444 14.0632 17.4475 14.2254 17.4151 14.3824C17.3827 14.5393 17.3153 14.6869 17.2179 14.8141C17.1263 14.9311 17.0092 15.0256 16.8755 15.0903C16.7418 15.155 16.5951 15.1883 16.4466 15.1875Z" fill="#67748E"/>
<path d="M5.16739 9.14062C3.93024 9.14062 2.8425 7.99031 2.74161 6.57668C2.69168 5.85246 2.91739 5.18273 3.37442 4.6916C3.82653 4.20539 4.46426 3.9375 5.16739 3.9375C5.87051 3.9375 6.50332 4.2068 6.95789 4.69582C7.41844 5.19082 7.64344 5.85914 7.59071 6.57738C7.48981 7.99066 6.40243 9.14062 5.16739 9.14062Z" fill="#67748E"/>
<path d="M7.47575 10.2463C6.85735 9.94395 6.05473 9.79277 5.16774 9.79277C4.13204 9.79277 3.12622 10.0628 2.3352 10.5529C1.43836 11.1094 0.835082 11.9197 0.59145 12.8981C0.555796 13.0389 0.552424 13.1858 0.581585 13.328C0.610747 13.4703 0.671687 13.604 0.759848 13.7194C0.843501 13.8268 0.950671 13.9135 1.07311 13.973C1.19556 14.0325 1.33001 14.0631 1.46614 14.0625H5.36848C5.43435 14.0625 5.49812 14.0394 5.54868 13.9972C5.59924 13.9549 5.63339 13.8963 5.64516 13.8315C5.64903 13.8094 5.65395 13.7872 5.65957 13.7654C5.9577 12.568 6.65625 11.5562 7.68844 10.8186C7.72641 10.7913 7.75694 10.7549 7.77728 10.7127C7.79762 10.6706 7.80712 10.624 7.80492 10.5773C7.80272 10.5305 7.78889 10.4851 7.76468 10.445C7.74048 10.4049 7.70666 10.3716 7.66629 10.3479C7.6111 10.3155 7.54782 10.2814 7.47575 10.2463Z" fill="#67748E"/>
</svg>
