<svg width="50" height="50" viewBox="0 0 50 50" fill="none" xmlns="http://www.w3.org/2000/svg">
<circle cx="25" cy="25" r="25" fill="#67748E"/>
<path d="M30.625 33.2505H18.4375C16.9202 33.2505 15.6142 32.8488 14.6598 32.0894C13.5737 31.2245 13 29.9406 13 28.3755C13 25.4763 15.2706 23.9064 17.582 23.5642C17.8877 21.6339 18.707 19.983 19.9778 18.7614C21.3267 17.4636 23.1282 16.7423 25 16.7505C26.6641 16.7505 28.1987 17.2984 29.4381 18.3348C30.3853 19.1337 31.1145 20.1595 31.5578 21.3166C32.9762 21.542 34.2508 22.1219 35.185 22.9741C36.3723 24.0573 37 25.5358 37 27.2505C37 28.938 36.3259 30.4792 35.102 31.5906C33.9231 32.6613 32.3331 33.2505 30.625 33.2505Z" fill="white"/>
</svg>
