<svg width="36" height="36" viewBox="0 0 36 36" fill="none" xmlns="http://www.w3.org/2000/svg">
<path d="M2.86899 0H12.9939L27.619 21.3749H17.4941L2.86899 0Z" fill="#BF392C"/>
<path d="M33.244 0H23.1191L8.49412 21.3749H18.6191L33.244 0Z" fill="#E2574C"/>
<path d="M17.494 11.25C10.6315 11.25 5.11899 16.7625 5.11899 23.625C5.11899 30.4875 10.6315 36 17.494 36C24.3565 36 29.869 30.4875 29.869 23.625C29.869 16.7625 24.3565 11.25 17.494 11.25Z" fill="#E4E7E7"/>
<path d="M17.494 14.625C22.4439 14.625 26.494 18.6749 26.494 23.625C26.494 28.5751 22.4441 32.625 17.494 32.625C12.5439 32.625 8.49396 28.5751 8.49396 23.625C8.49396 18.6749 12.544 14.625 17.494 14.625ZM17.494 30.3749C21.2065 30.3749 24.244 27.3374 24.244 23.625C24.244 19.9126 21.2064 16.875 17.494 16.875C13.7816 16.875 10.744 19.9126 10.744 23.625C10.744 27.3374 13.7816 30.3749 17.494 30.3749Z" fill="#CDCFCF"/>
</svg>
